<svg xmlns:xlink="http://www.w3.org/1999/xlink" width="279mm" height="215mm" viewBox="0 0 2794 2159"><defs><linearGradient id="CDGradient4rgb_255_255_255_rgb_255_255_255_" x1="1" x2="0" y1="0" y2="0" gradientTransform="rotate(90)" gradientUnits="objectBoundingBox" spreadMethod="reflect"><stop offset="0" stop-color="#FFF"/><stop offset="1" stop-color="#FFF"/></linearGradient><g id="CDArrow5"><path d="M 40 20L 0 0L 40 -20L 35 0"/></g><linearGradient id="CDGradient4rgb_255_255_255_rgb_255_255_255_" x1="1" x2="0" y1="0" y2="0" gradientTransform="rotate(90)" gradientUnits="objectBoundingBox" spreadMethod="reflect"><stop offset="0" stop-color="#FFF"/><stop offset="1" stop-color="#FFF"/></linearGradient><linearGradient id="CDGradient4rgb_255_255_255_rgb_255_255_255_" x1="1" x2="0" y1="0" y2="0" gradientTransform="rotate(90)" gradientUnits="objectBoundingBox" spreadMethod="reflect"><stop offset="0" stop-color="#FFF"/><stop offset="1" stop-color="#FFF"/></linearGradient><marker id="CDArrow5_rgb_85_85_85__size_0_end" markerHeight="20" markerUnits="userSpaceOnUse" markerWidth="20" orient="auto" refX="35" refY="0" viewBox="-8 -28 56 56"><use x="0" y="0" fill="#555" stroke="#555" stroke-width="8" transform="translate(35,0) rotate(180)" xlink:href="#CDArrow5"/></marker></defs><svg width="2794" height="2159" x="0" y="0"><g><g fill="#000" fill-opacity="1" stroke="none" stroke-linecap="round" stroke-opacity="1" stroke-width="2"><g fill="#000" fill-opacity="1" stroke="none" stroke-linecap="round" stroke-opacity="1" stroke-width="2"><path fill-rule="evenodd" marker-end="none" marker-start="none" d="M 0.00 36.90 A 36.90 36.90 90.00 1 1 73.80 36.90 A 36.90 36.90 90.00 1 1 0.00 36.90 Z" transform="translate(20.00,20.00) translate(966.02,598.10) scale(1,1) rotate(0.00,36.90,36.90) translate(0.00,0.00) scale(1,1) rotate(0.00,36.90,36.90)"/></g></g><g fill="#000" fill-opacity="1" stroke="none" stroke-linecap="round" stroke-opacity="1" stroke-width="2"><g fill="#000" fill-opacity="1" stroke="none" stroke-linecap="round" stroke-opacity="1" stroke-width="2"><path fill-rule="evenodd" marker-end="none" marker-start="none" d="M 0.00 0.00 L 0.00 101.60 L 177.80 101.60 L 177.80 0.00 L 0.00 0.00 Z" transform="translate(20.00,20.00) translate(1468.95,584.20) scale(1,1) rotate(0.00,88.90,50.80) translate(0.00,0.00) scale(1,1) rotate(0.00,88.90,50.80)"/></g></g><g fill="#000" fill-opacity="1" stroke="none" stroke-linecap="round" stroke-opacity="1" stroke-width="2"><g fill="#000" fill-opacity="1" stroke="none" stroke-linecap="round" stroke-opacity="1" stroke-width="2"><path fill-rule="evenodd" marker-end="none" marker-start="none" d="M 0.00 0.00 L 0.00 101.60 L 177.80 101.60 L 177.80 0.00 L 0.00 0.00 Z" transform="translate(20.00,20.00) translate(1143.00,584.20) scale(1,1) rotate(0.00,88.90,50.80) translate(0.00,0.00) scale(1,1) rotate(0.00,88.90,50.80)"/></g></g></g></svg><svg width="2794" height="2159" x="0" y="0"><g fill="none" fill-opacity="1" stroke="none" stroke-linecap="round" stroke-opacity="1" stroke-width="3"><g><text stroke-width="0" transform="translate(857.75,559.15) scale(1,1) rotate(0.00,50.80,21.15) translate(0.00,0.00) scale(1,1) rotate(0.00,50.80,21.15)"><tspan x="34.08" y="33.8" fill="#000" stroke="#000" font-family="Times New Roman" font-size="49" font-style="italic" font-weight="100" opacity="1">x</tspan> <tspan x="56" y="52.8" fill="#000" stroke="#000" font-family="Times New Roman" font-size="24" font-style="italic" font-weight="100" opacity="1"> r</tspan></text></g></g><g fill="none" fill-opacity="1" stroke="none" stroke-linecap="round" stroke-opacity="1" stroke-width="3"><g><text stroke-width="0" transform="translate(1003.01,863.60) scale(1,1) rotate(0.00,393.99,38.10) translate(0.00,0.00) scale(1,1) rotate(0.00,393.99,38.10)"><tspan x="288.16 323.43 358.71 393.99" y="48.96 48.96 48.96 48.96" fill="#000" stroke="#000" font-family="微软雅黑" font-size="35" font-weight="100" opacity="1">反馈系统</tspan> <tspan x="429.27 464.55" y="48.96 48.96" fill="#000" stroke="#000" font-family="微软雅黑" font-size="35" font-weight="100" opacity="1"> 框图</tspan></text></g></g><g fill="#F0F0F0" fill-opacity="1" stroke="none" stroke-linecap="round" stroke-opacity="1" stroke-width="2"><g fill="#F0F0F0" fill-opacity="1" stroke="none" stroke-linecap="round" stroke-opacity="1" stroke-width="2"><path fill-rule="evenodd" marker-end="none" marker-start="none" d="M 0.00 36.90 A 36.90 36.90 90.00 1 1 73.80 36.90 A 36.90 36.90 90.00 1 1 0.00 36.90 Z" transform="translate(966.02,598.10) scale(1,1) rotate(0.00,36.90,36.90) translate(0.00,0.00) scale(1,1) rotate(0.00,36.90,36.90)"/></g><g fill="url(#CDGradient4rgb_255_255_255_rgb_255_255_255_)" fill-opacity=".8" stroke="#7D7D7D" stroke-linecap="round" stroke-opacity="1" stroke-width="2" transform="translate(966.02,598.10) scale(1,1) rotate(0.00,36.90,36.90) translate(0.00,0.00) scale(1,1) rotate(0.00,36.90,36.90)"><path fill-rule="evenodd" marker-end="none" marker-start="none" d="M 0.00 36.90 A 36.90 36.90 90.00 1 1 73.80 36.90 A 36.90 36.90 90.00 1 1 0.00 36.90 Z"/></g><g><text stroke-width="0" transform="translate(966.02,598.10) scale(1,1) rotate(0.00,36.90,36.90) translate(2.23,0.00) scale(1,1) rotate(0.00,36.90,36.90)"><tspan x="28.07" y="45.97" fill="#000" stroke="#000" font-family="Times New Roman" font-size="35" font-weight="900" opacity="1">+</tspan></text></g></g><g><path fill="none" stroke="#555" stroke-linecap="round" stroke-opacity="1" stroke-width="5" marker-end="url(#CDArrow5_rgb_85_85_85__size_0_end)" d="M 0.00 2.42 L 0.00 0.00 L 132.27 0.00" transform="translate(833.75,632.58) scale(1,1) rotate(0.00,66.13,1.21)"/><g transform="translate(833.75,632.58) scale(1,1) rotate(0.00,66.13,1.21) translate(-7.06,-28.22) scale(1,1) rotate(0.00,7.06,28.22)"><rect width="5" height="42" x="0" y="7" fill="#FFF" stroke="none" opacity="1"/></g></g><g fill="#F0F0F0" fill-opacity="1" stroke="none" stroke-linecap="round" stroke-opacity="1" stroke-width="2"><g fill="#F0F0F0" fill-opacity="1" stroke="none" stroke-linecap="round" stroke-opacity="1" stroke-width="2"><path fill-rule="evenodd" marker-end="none" marker-start="none" d="M 0.00 0.00 L 0.00 101.60 L 177.80 101.60 L 177.80 0.00 L 0.00 0.00 Z" transform="translate(1468.95,584.20) scale(1,1) rotate(0.00,88.90,50.80) translate(0.00,0.00) scale(1,1) rotate(0.00,88.90,50.80)"/></g><g fill="url(#CDGradient4rgb_255_255_255_rgb_255_255_255_)" fill-opacity=".8" stroke="#7D7D7D" stroke-linecap="round" stroke-opacity="1" stroke-width="2" transform="translate(1468.95,584.20) scale(1,1) rotate(0.00,88.90,50.80) translate(0.00,0.00) scale(1,1) rotate(0.00,88.90,50.80)"><path fill-rule="evenodd" marker-end="none" marker-start="none" d="M 0.00 0.00 L 0.00 101.60 L 177.80 101.60 L 177.80 0.00 L 0.00 0.00 Z"/></g><g><text stroke-width="0" transform="translate(1468.95,584.20) scale(1,1) rotate(0.00,88.90,50.80) translate(0.00,0.00) scale(1,1) rotate(0.00,88.90,50.80)"><tspan x="78.13" y="59.87" fill="#000" stroke="#000" font-family="Times New Roman" font-size="35" font-weight="900" opacity="1">P</tspan></text></g></g><g><path fill="none" stroke="#555" stroke-linecap="round" stroke-opacity="1" stroke-width="5" marker-end="url(#CDArrow5_rgb_85_85_85__size_0_end)" d="M -0.00 0.00 L 103.18 0.00" transform="translate(1039.82,635.00) scale(1,1) rotate(0.00,51.59,0.00)"/><g transform="translate(1039.82,635.00) scale(1,1) rotate(0.00,51.59,0.00) translate(44.54,-28.22) scale(1,1) rotate(0.00,7.06,28.22)"><rect width="5" height="42" x="0" y="7" fill="#FFF" stroke="none" opacity="1"/></g></g><g><path fill="none" stroke="#555" stroke-linecap="round" stroke-opacity="1" stroke-width="5" marker-end="url(#CDArrow5_rgb_85_85_85__size_0_end)" d="M 0.00 0.21 L 296.49 0.21 L 296.49 0.00" transform="translate(1646.75,634.79) scale(1,1) rotate(0.00,148.25,0.11)"/><g transform="translate(1646.75,634.79) scale(1,1) rotate(0.00,148.25,0.11) translate(289.44,-28.01) scale(1,1) rotate(0.00,7.06,28.22)"><rect width="5" height="42" x="0" y="7" fill="#FFF" stroke="none" opacity="1"/></g></g><g><path fill="none" stroke="#555" stroke-linecap="round" stroke-opacity="1" stroke-width="5" marker-end="url(#CDArrow5_rgb_85_85_85__size_0_end)" d="M 0.00 0.21 L 0.00 0.00 L 165.24 0.00" transform="translate(1778.00,634.79) scale(1,1) rotate(0.00,82.62,0.11)"/><g transform="translate(1778.00,634.79) scale(1,1) rotate(0.00,82.62,0.11) translate(-7.06,-28.22) scale(1,1) rotate(0.00,7.06,28.22)"><rect width="5" height="42" x="0" y="7" fill="#FFF" stroke="none" opacity="1"/></g></g><g><path fill="none" stroke="#555" stroke-linecap="round" stroke-opacity="1" stroke-width="5" marker-end="url(#CDArrow5_rgb_85_85_85__size_0_end)" d="M 775.08 0.00 L 775.08 193.05 L 0.00 193.05 L 0.00 36.90" transform="translate(1002.92,635.00) scale(1,1) rotate(0.00,387.54,18.45)"/><g transform="translate(1002.92,635.00) scale(1,1) rotate(0.00,387.54,18.45) translate(380.49,164.83) scale(1,1) rotate(0.00,7.06,28.22)"><rect width="5" height="42" x="0" y="7" fill="#FFF" stroke="none" opacity="1"/></g></g><g fill="#F0F0F0" fill-opacity="1" stroke="none" stroke-linecap="round" stroke-opacity="1" stroke-width="2"><g fill="#F0F0F0" fill-opacity="1" stroke="none" stroke-linecap="round" stroke-opacity="1" stroke-width="2"><path fill-rule="evenodd" marker-end="none" marker-start="none" d="M 0.00 0.00 L 0.00 101.60 L 177.80 101.60 L 177.80 0.00 L 0.00 0.00 Z" transform="translate(1143.00,584.20) scale(1,1) rotate(0.00,88.90,50.80) translate(0.00,0.00) scale(1,1) rotate(0.00,88.90,50.80)"/></g><g fill="url(#CDGradient4rgb_255_255_255_rgb_255_255_255_)" fill-opacity=".8" stroke="#7D7D7D" stroke-linecap="round" stroke-opacity="1" stroke-width="2" transform="translate(1143.00,584.20) scale(1,1) rotate(0.00,88.90,50.80) translate(0.00,0.00) scale(1,1) rotate(0.00,88.90,50.80)"><path fill-rule="evenodd" marker-end="none" marker-start="none" d="M 0.00 0.00 L 0.00 101.60 L 177.80 101.60 L 177.80 0.00 L 0.00 0.00 Z"/></g><g><text stroke-width="0" transform="translate(1143.00,584.20) scale(1,1) rotate(0.00,88.90,50.80) translate(0.00,0.00) scale(1,1) rotate(0.00,88.90,50.80)"><tspan x="76.16" y="59.87" fill="#000" stroke="#000" font-family="Times New Roman" font-size="35" font-weight="900" opacity="1">C</tspan></text></g></g><g fill="none" fill-opacity="1" stroke="none" stroke-linecap="round" stroke-opacity="1" stroke-width="3"><g><text stroke-width="0" transform="translate(926.81,706.35) scale(1,1) rotate(0.00,38.10,21.15) translate(0.00,0.00) scale(1,1) rotate(0.00,38.10,21.15)"><tspan x="29.88" y="33.8" fill="#000" stroke="#000" font-family="Times New Roman" font-size="49" font-weight="100" opacity="1">-</tspan></text></g></g><g fill="none" fill-opacity="1" stroke="none" stroke-linecap="round" stroke-opacity="1" stroke-width="3"><g><text stroke-width="0" transform="translate(1828.80,577.52) scale(1,1) rotate(0.00,50.80,21.15) translate(0.00,0.00) scale(1,1) rotate(0.00,50.80,21.15)"><tspan x="39.84" y="33.8" fill="#000" stroke="#000" font-family="Times New Roman" font-size="49" font-style="italic" font-weight="100" opacity="1">x</tspan></text></g></g><g fill="none" fill-opacity="1" stroke="none" stroke-linecap="round" stroke-opacity="1" stroke-width="3"><g><text stroke-width="0" transform="translate(1342.86,578.64) scale(1,1) rotate(0.00,50.80,21.15) translate(0.00,0.00) scale(1,1) rotate(0.00,50.80,21.15)"><tspan x="43.94" y="33.8" fill="#000" stroke="#000" font-family="Times New Roman" font-size="49" font-style="italic" font-weight="100" opacity="1">f</tspan></text></g></g><g><path fill="none" stroke="#555" stroke-linecap="round" stroke-opacity="1" stroke-width="5" marker-end="url(#CDArrow5_rgb_85_85_85__size_0_end)" d="M 0.00 0.00 L 148.15 0.00" transform="translate(1320.80,635.00) scale(1,1) rotate(0.00,74.07,0.00)"/><g transform="translate(1320.80,635.00) scale(1,1) rotate(0.00,74.07,0.00) translate(67.02,-28.22) scale(1,1) rotate(0.00,7.06,28.22)"><rect width="5" height="42" x="0" y="7" fill="#FFF" stroke="none" opacity="1"/></g></g></svg></svg>