<svg xmlns="http://www.w3.org/2000/svg" xmlns:cc="http://web.resource.org/cc/" xmlns:svg="http://www.w3.org/2000/svg" xmlns:xlink="http://www.w3.org/1999/xlink" xmlns:xml="http://www.w3.org/XML/1998/namespace" id="svg2" width="1122.52" height="793.701"><defs id="defs3"><marker id="TriangleOutM" orient="auto" refX="0" refY="0" style="overflow:visible"><path id="path14618" d="M 5.77,0.0 L -2.88,5.0 L -2.88,-5.0 L 5.77,0.0 z" transform="scale(0.4)" style="fill-rule:evenodd;stroke:#000;stroke-width:1pt;marker-start:none"/></marker><marker id="DistanceOut" orient="auto" refX="0" refY="0" style="overflow:visible"><g id="g990" transform="scale(-0.6,0.6) translate(8,0)"><path id="path991" d="M 0.0,0.0 L 5.0,-5.0 L -12.5,0.0 L 5.0,5.0 L 0.0,0.0 z" style="fill-rule:evenodd;stroke:#000;stroke-width:1pt;marker-start:none"/><path id="path992" d="M -14.759949,-7 L -14.759949,65" style="fill:none;fill-opacity:.75;fill-rule:evenodd;stroke:#000;stroke-width:1.2pt;marker-start:none"/></g></marker><marker id="Arrow2Mend" orient="auto" refX="0" refY="0" style="overflow:visible"><path id="path14683" d="M 8.7185878,4.0337352 L -2.2072895,0.016013256 L 8.7185884,-4.0017078 C 6.9730900,-1.6296469 6.9831476,1.6157441 8.7185878,4.0337352 z" transform="scale(0.6) rotate(180) translate(-5,0)" style="font-size:12;fill-rule:evenodd;stroke-width:.625;stroke-linejoin:round"/></marker><marker id="Arrow2Lend" orient="auto" refX="0" refY="0" style="overflow:visible"><path id="path14686" d="M 8.7185878,4.0337352 L -2.2072895,0.016013256 L 8.7185884,-4.0017078 C 6.9730900,-1.6296469 6.9831476,1.6157441 8.7185878,4.0337352 z" transform="scale(1.1) rotate(180) translate(-5,0)" style="font-size:12;fill-rule:evenodd;stroke-width:.625;stroke-linejoin:round"/></marker><marker id="Arrow1Lstart" orient="auto" refX="0" refY="0" style="overflow:visible"><path id="path14694" d="M 0.0,0.0 L 5.0,-5.0 L -12.5,0.0 L 5.0,5.0 L 0.0,0.0 z" transform="scale(0.8)" style="fill-rule:evenodd;stroke:#000;stroke-width:1pt;marker-start:none"/></marker><linearGradient id="linearGradient12991"><stop id="stop12993" offset="0" style="stop-color:#000;stop-opacity:1"/><stop id="stop12995" offset=".5" style="stop-color:#303030;stop-opacity:1"/><stop id="stop12997" offset="1" style="stop-color:#c5c5c5;stop-opacity:1"/></linearGradient><linearGradient id="linearGradient10689"><stop id="stop10691" offset="0" style="stop-color:#202020;stop-opacity:1"/><stop id="stop10697" offset=".5" style="stop-color:#404040;stop-opacity:1"/><stop id="stop10693" offset="1" style="stop-color:#fff;stop-opacity:1"/></linearGradient><linearGradient id="linearGradient3574"><stop id="stop3576" offset="0" style="stop-color:#80633f;stop-opacity:1"/><stop id="stop3578" offset="1" style="stop-color:gray;stop-opacity:0"/></linearGradient><linearGradient id="linearGradient4342" x1="242.715" x2="-255.312" y1="213.385" y2="213.385" gradientTransform="scale(0.448308,2.230609)" gradientUnits="userSpaceOnUse" xlink:href="#linearGradient3574"/><linearGradient id="linearGradient13803" x1="195.701" x2="195.701" y1="953.656" y2="831.596" gradientTransform="matrix(0.472869,0.000000,0.000000,0.190565,351.4267,351.7285)" gradientUnits="userSpaceOnUse" xlink:href="#linearGradient10689"/><linearGradient id="linearGradient13805" x1="195.701" x2="195.701" y1="953.656" y2="831.596" gradientTransform="matrix(1.429058,0.000000,0.000000,0.138181,-89.86591,398.4339)" gradientUnits="userSpaceOnUse" xlink:href="#linearGradient12991"/><linearGradient id="linearGradient13807" x1="195.701" x2="195.701" y1="953.656" y2="831.596" gradientTransform="matrix(1.723624,0.000000,0.000000,0.580173,5.800271,4.350203)" gradientUnits="userSpaceOnUse" xlink:href="#linearGradient10689"/><linearGradient id="linearGradient13809" x1="195.701" x2="195.701" y1="953.656" y2="831.596" gradientTransform="matrix(0.430029,0.000000,0.000000,0.639573,193.7553,-48.61137)" gradientUnits="userSpaceOnUse" xlink:href="#linearGradient10689"/><linearGradient id="linearGradient15555" x1="195.701" x2="195.701" y1="953.656" y2="831.596" gradientTransform="matrix(0.472869,0.000000,0.000000,0.190565,351.4267,351.7285)" gradientUnits="userSpaceOnUse" xlink:href="#linearGradient10689"/><linearGradient id="linearGradient15557" x1="195.701" x2="195.701" y1="953.656" y2="831.596" gradientTransform="matrix(1.429058,0.000000,0.000000,0.138181,-89.86591,398.4339)" gradientUnits="userSpaceOnUse" xlink:href="#linearGradient12991"/><linearGradient id="linearGradient15559" x1="195.701" x2="195.701" y1="953.656" y2="831.596" gradientTransform="matrix(1.723624,0.000000,0.000000,0.580173,5.800271,4.350203)" gradientUnits="userSpaceOnUse" xlink:href="#linearGradient10689"/><linearGradient id="linearGradient15561" x1="195.701" x2="195.701" y1="953.656" y2="831.596" gradientTransform="matrix(0.430029,0.000000,0.000000,0.639573,193.7553,-48.61137)" gradientUnits="userSpaceOnUse" xlink:href="#linearGradient10689"/><linearGradient id="linearGradient15563" x1="242.715" x2="-255.312" y1="213.385" y2="213.385" gradientTransform="scale(0.448308,2.230609)" gradientUnits="userSpaceOnUse" xlink:href="#linearGradient3574"/></defs><metadata id="metadata4"/><g id="layer1"><g id="g15528" transform="translate(-5.445602,-112.6112)"><g id="g13795" transform="translate(0.000000,3.091061)"><path style="fill:none;fill-opacity:1;fill-rule:nonzero;stroke:#000;stroke-width:4.9999971;stroke-miterlimit:4;stroke-opacity:1" id="path5102" d="M 458.10637,440.43359 L 400.07825,439.36155 C 399.84124,424.80427 405.00628,412.92425 412.33480,412.92425 C 423.81785,412.92425 427.59806,424.80427 427.59806,439.44214 C 427.59806,457.38629 412.73909,465.96002 404.02574,465.96002 C 395.31237,465.96002 379.06858,458.45645 379.06856,439.44214 C 379.06854,424.80427 384.23358,412.92425 391.56210,412.92425 C 403.04515,412.92425 406.82536,424.80427 406.82536,439.44214 C 406.82536,457.38629 391.96639,465.96002 383.25304,465.96002 C 374.53967,465.96002 358.29588,458.45645 358.29586,439.44214 C 358.29584,424.80427 363.46088,412.92425 370.78940,412.92425 C 382.27245,412.92425 386.05266,424.80427 386.05266,439.44214 C 386.05266,457.38629 371.19369,465.96002 362.48034,465.96002 C 353.76697,465.96002 337.52318,458.45645 337.52318,439.44214 C 337.52318,424.80427 342.68822,412.92425 350.01674,412.92425 C 361.49979,412.92425 365.28000,424.80427 365.28000,439.44214 C 365.28000,457.38629 350.42103,465.96002 341.70768,465.96002 C 332.99431,465.96002 316.75052,458.45645 316.75056,439.44214 C 316.75061,424.80427 321.91565,412.92425 329.24417,412.92425 C 340.72722,412.92425 344.50743,424.80427 344.50743,439.44214 C 344.50743,457.38629 329.64846,465.96002 320.93511,465.96002 C 312.22174,465.96002 295.97795,458.45645 295.97795,439.44214 C 295.97795,424.80427 301.14299,412.92425 308.47151,412.92425 C 319.95456,412.92425 323.73477,424.80427 323.73477,439.44214 C 323.73477,457.38629 308.87580,465.96002 300.16245,465.96002 C 291.44908,465.96002 275.20529,458.45645 275.20529,439.44214 C 275.20529,424.80427 280.37033,412.92425 287.69885,412.92425 C 299.18190,412.92425 302.96211,424.80427 302.96211,439.44214 C 302.96211,457.38629 288.10314,465.96002 279.38979,465.96002 C 270.67642,465.96002 254.43263,458.45645 254.43263,439.44214 C 254.43263,424.80427 259.59767,412.92425 266.92619,412.92425 C 278.40924,412.92425 282.18945,424.80427 282.18945,439.44214 C 282.18945,457.38629 267.33048,465.96002 258.61713,465.96002 C 249.90376,465.96002 233.65997,458.45645 233.65997,439.44214 C 233.65998,424.80427 238.82502,412.92425 246.15354,412.92425 C 257.63659,412.92425 261.41680,424.80427 261.41680,439.44214 C 261.41680,457.38629 246.55783,465.96002 237.84448,465.96002 C 229.13111,465.96002 212.88732,458.45645 212.88732,439.44214 C 212.88732,424.80427 218.05236,412.92425 225.38088,412.92425 C 236.86393,412.92425 240.64414,424.80427 240.64414,439.44214 C 240.64414,457.38629 225.78517,465.96002 217.07182,465.96002 C 208.35845,465.96002 192.11466,458.45645 192.11466,439.44214 C 192.11466,424.80427 197.27970,412.92425 204.60822,412.92425 C 216.09127,412.92425 219.87148,424.80427 219.87148,439.44214 C 219.87148,457.38629 205.01251,465.96002 196.29916,465.96002 C 187.58579,465.96002 171.34200,458.45645 171.34200,439.44214 C 171.34200,424.80427 176.50704,412.92425 183.83556,412.92425 C 195.31861,412.92425 199.09882,424.80427 199.09882,439.44214 C 199.09882,457.38629 184.23985,465.96002 175.52650,465.96002 C 166.81313,465.96002 150.56934,458.22714 150.90244,438.98352 L 120.06652,438.98352"/><g id="g13789"><rect id="use12227" width="45.351" height="17.623" x="421.045" y="512.826" style="fill:url(#linearGradient15555);fill-opacity:1;fill-rule:nonzero;stroke:#000;stroke-width:3.0000072;stroke-miterlimit:4;stroke-opacity:1"/><rect id="use12221" width="137.057" height="12.779" x="120.528" y="515.248" style="fill:url(#linearGradient15557);fill-opacity:1;fill-rule:nonzero;stroke:#000;stroke-width:3.0000021;stroke-miterlimit:4;stroke-opacity:1"/><rect id="rect9915" width="165.308" height="53.653" x="259.562" y="494.811" style="fill:url(#linearGradient15559);fill-opacity:1;fill-rule:nonzero;stroke:#000;stroke-width:3;stroke-miterlimit:4;stroke-opacity:1"/><rect id="use10699" width="41.243" height="59.146" x="257.067" y="492.064" style="fill:url(#linearGradient15561);fill-opacity:1;fill-rule:nonzero;stroke:#000;stroke-width:3;stroke-miterlimit:4;stroke-opacity:1"/></g></g><g id="g8947"><path id="path2054" d="M 119.80320,206.93280 L 119.80320,762.38399 L 119.80320,762.38399" style="fill:none;fill-opacity:.75;fill-rule:evenodd;stroke:#000;stroke-width:5;stroke-linecap:butt;stroke-linejoin:miter;stroke-miterlimit:4;stroke-opacity:1"/><rect id="rect2814" width="111.635" height="555.451" x="5.446" y="206.933" style="fill:url(#linearGradient15563);fill-opacity:1;fill-rule:nonzero;stroke:none;stroke-width:5;stroke-miterlimit:4;stroke-opacity:1"/></g><rect id="rect1291" width="195.521" height="195.521" x="459.052" y="386.898" style="fill:gray;fill-opacity:1;stroke:#000;stroke-width:4.9999986;stroke-miterlimit:4;stroke-opacity:1"/><g id="g13777" transform="translate(35.39640,-4.247753)"><text id="text13757" x="266.24" y="387.999" xml:space="preserve" style="font-size:56;font-style:italic;font-variant:normal;font-weight:400;font-stretch:normal;fill:#000;fill-opacity:1;stroke:none;stroke-width:1px;stroke-linecap:butt;stroke-linejoin:miter;stroke-opacity:1;font-family:Nimbus Roman No9 L;text-anchor:start;writing-mode:lr-tb"><tspan id="tspan13759" x="266.24" y="387.999">k</tspan></text><text id="text13761" x="264.112" y="619.437" xml:space="preserve" style="font-size:56;font-style:italic;font-variant:normal;font-weight:400;font-stretch:normal;fill:#000;fill-opacity:1;stroke:none;stroke-width:1px;stroke-linecap:butt;stroke-linejoin:miter;stroke-opacity:1;font-family:Nimbus Roman No9 L;text-anchor:start;writing-mode:lr-tb"><tspan id="tspan13763" x="264.112" y="619.437">B</tspan></text></g><text id="text13765" x="528.106" y="508.463" xml:space="preserve" style="font-size:82.370941;font-style:italic;font-variant:normal;font-weight:400;font-stretch:normal;fill:#000;fill-opacity:1;stroke:none;stroke-width:1px;stroke-linecap:butt;stroke-linejoin:miter;stroke-opacity:1;font-family:Nimbus Roman No9 L;text-anchor:start;writing-mode:lr-tb"><tspan id="tspan13767" x="528.106" y="508.463">m</tspan></text><text id="text13769" x="806.531" y="458.792" xml:space="preserve" style="font-size:56;font-style:italic;font-variant:normal;font-weight:400;font-stretch:normal;fill:#000;fill-opacity:1;stroke:none;stroke-width:1px;stroke-linecap:butt;stroke-linejoin:miter;stroke-opacity:1;font-family:Nimbus Roman No9 L;text-anchor:start;writing-mode:lr-tb"><tspan id="tspan13771" x="806.531" y="458.792">F</tspan></text><text id="text13773" x="640.603" y="294.466" xml:space="preserve" style="font-size:56;font-style:italic;font-variant:normal;font-weight:400;font-stretch:normal;fill:#000;fill-opacity:1;stroke:none;stroke-width:1px;stroke-linecap:butt;stroke-linejoin:miter;stroke-opacity:1;font-family:Nimbus Roman No9 L;text-anchor:start;writing-mode:lr-tb"><tspan id="tspan13775" x="640.603" y="294.466">x</tspan></text><path id="path13813" d="M 955.70278,484.65820 L 707.92799,484.65820" style="fill:none;fill-opacity:.75;fill-rule:evenodd;stroke:#000;stroke-width:7;stroke-linecap:butt;stroke-linejoin:miter;stroke-miterlimit:4;stroke-dashoffset:0;stroke-opacity:1;marker-end:url(#Arrow2Mend)"/><path id="path14720" d="M 686.14555,281.80980 L 903.96955,281.80980" style="fill:none;fill-opacity:.75;fill-rule:evenodd;stroke:#000;stroke-width:3;stroke-linecap:butt;stroke-linejoin:miter;stroke-miterlimit:4;stroke-dasharray:24 3;stroke-dashoffset:0;stroke-opacity:1;marker-end:url(#Arrow2Lend)"/><use id="use15500" width="744.094" height="1052.362" x="0" y="0" transform="matrix(-1.000000,0.000000,0.000000,1.000000,1304.221,0.000000)" xlink:href="#path14720"/></g></g></svg>