<svg xmlns="http://www.w3.org/2000/svg" xmlns:svg="http://www.w3.org/2000/svg" xmlns:xlink="http://www.w3.org/1999/xlink" id="svg2" width="720" height="136pt" version="1.1" viewBox="0 0 540 136"><metadata id="metadata1815"/><defs id="defs4"><style id="style6" type="text/css">*{stroke-linecap:butt;stroke-linejoin:round}</style></defs><g id="figure_1"><g id="patch_1"><path style="fill:#fff" id="path10" d="M0 136.8 L540 136.8 L540 0 L0 0 z"/></g><g id="axes_1"><g id="table_1"><g id="patch_2"><path style="fill:#fff;stroke:#000" id="path15" d="M61.9692 31.5278 L76.7181 31.5278 L76.7181 16.7789 L61.9692 16.7789 z"/></g><g id="text_1"><defs id="defs18"><path id="BitstreamVeraSans-Roman-30" d="M31.7812 66.4062 Q24.1719 66.4062 20.3281 58.9062 Q16.5 51.4219 16.5 36.375 Q16.5 21.3906 20.3281 13.8906 Q24.1719 6.39062 31.7812 6.39062 Q39.4531 6.39062 43.2812 13.8906 Q47.125 21.3906 47.125 36.375 Q47.125 51.4219 43.2812 58.9062 Q39.4531 66.4062 31.7812 66.4062 M31.7812 74.2188 Q44.0469 74.2188 50.5156 64.5156 Q56.9844 54.8281 56.9844 36.375 Q56.9844 17.9688 50.5156 8.26562 Q44.0469 -1.42188 31.7812 -1.42188 Q19.5312 -1.42188 13.0625 8.26562 Q6.59375 17.9688 6.59375 36.375 Q6.59375 54.8281 13.0625 64.5156 Q19.5312 74.2188 31.7812 74.2188"/><path id="BitstreamVeraSans-Roman-34" d="M37.7969 64.3125 L12.8906 25.3906 L37.7969 25.3906 z M35.2031 72.9062 L47.6094 72.9062 L47.6094 25.3906 L58.0156 25.3906 L58.0156 17.1875 L47.6094 17.1875 L47.6094 0 L37.7969 0 L37.7969 17.1875 L4.89062 17.1875 L4.89062 26.7031 z"/></defs><g id="g22" transform="translate(65.2934560848 26.0848664648)scale(0.07 -0.07)"><use id="use24" xlink:href="#BitstreamVeraSans-Roman-34"/><use id="use26" x="63.623" xlink:href="#BitstreamVeraSans-Roman-30"/></g></g><g id="patch_3"><path style="fill:#fff;stroke:#000" id="path29" d="M76.7181 31.5278 L91.467 31.5278 L91.467 16.7789 L76.7181 16.7789 z"/></g><g id="text_2"><defs id="defs32"><path id="BitstreamVeraSans-Roman-37" d="M8.20312 72.9062 L55.0781 72.9062 L55.0781 68.7031 L28.6094 0 L18.3125 0 L43.2188 64.5938 L8.20312 64.5938 z"/></defs><g id="g35" transform="translate(82.4518860132 26.0848664648)scale(0.07 -0.07)"><use id="use37" xlink:href="#BitstreamVeraSans-Roman-37"/></g></g><g id="patch_4"><path style="fill:#fff;stroke:#000" id="path40" d="M91.467 31.5278 L106.216 31.5278 L106.216 16.7789 L91.467 16.7789 z"/></g><g id="text_3"><defs id="defs43"><path id="BitstreamVeraSans-Roman-38" d="M31.7812 34.625 Q24.75 34.625 20.7188 30.8594 Q16.7031 27.0938 16.7031 20.5156 Q16.7031 13.9219 20.7188 10.1562 Q24.75 6.39062 31.7812 6.39062 Q38.8125 6.39062 42.8594 10.1719 Q46.9219 13.9688 46.9219 20.5156 Q46.9219 27.0938 42.8906 30.8594 Q38.875 34.625 31.7812 34.625 M21.9219 38.8125 Q15.5781 40.375 12.0312 44.7188 Q8.5 49.0781 8.5 55.3281 Q8.5 64.0625 14.7188 69.1406 Q20.9531 74.2188 31.7812 74.2188 Q42.6719 74.2188 48.875 69.1406 Q55.0781 64.0625 55.0781 55.3281 Q55.0781 49.0781 51.5312 44.7188 Q48 40.375 41.7031 38.8125 Q48.8281 37.1562 52.7969 32.3125 Q56.7812 27.4844 56.7812 20.5156 Q56.7812 9.90625 50.3125 4.23438 Q43.8438 -1.42188 31.7812 -1.42188 Q19.7344 -1.42188 13.25 4.23438 Q6.78125 9.90625 6.78125 20.5156 Q6.78125 27.4844 10.7812 32.3125 Q14.7969 37.1562 21.9219 38.8125 M18.3125 54.3906 Q18.3125 48.7344 21.8438 45.5625 Q25.3906 42.3906 31.7812 42.3906 Q38.1406 42.3906 41.7188 45.5625 Q45.3125 48.7344 45.3125 54.3906 Q45.3125 60.0625 41.7188 63.2344 Q38.1406 66.4062 31.7812 66.4062 Q25.3906 66.4062 21.8438 63.2344 Q18.3125 60.0625 18.3125 54.3906"/><path id="BitstreamVeraSans-Roman-31" d="M12.4062 8.29688 L28.5156 8.29688 L28.5156 63.9219 L10.9844 60.4062 L10.9844 69.3906 L28.4219 72.9062 L38.2812 72.9062 L38.2812 8.29688 L54.3906 8.29688 L54.3906 0 L12.4062 0 z"/></defs><g id="g47" transform="translate(95.0116440666 26.0848664648)scale(0.07 -0.07)"><use id="use49" xlink:href="#BitstreamVeraSans-Roman-31"/><use id="use51" x="63.623" xlink:href="#BitstreamVeraSans-Roman-38"/></g></g><g id="patch_5"><path style="fill:#fff;stroke:#000" id="path54" d="M106.216 31.5278 L120.965 31.5278 L120.965 16.7789 L106.216 16.7789 z"/></g><g id="text_4"><defs id="defs57"><path id="BitstreamVeraSans-Roman-32" d="M19.1875 8.29688 L53.6094 8.29688 L53.6094 0 L7.32812 0 L7.32812 8.29688 Q12.9375 14.1094 22.625 23.8906 Q32.3281 33.6875 34.8125 36.5312 Q39.5469 41.8438 41.4219 45.5312 Q43.3125 49.2188 43.3125 52.7812 Q43.3125 58.5938 39.2344 62.25 Q35.1562 65.9219 28.6094 65.9219 Q23.9688 65.9219 18.8125 64.3125 Q13.6719 62.7031 7.8125 59.4219 L7.8125 69.3906 Q13.7656 71.7812 18.9375 73 Q24.125 74.2188 28.4219 74.2188 Q39.75 74.2188 46.4844 68.5469 Q53.2188 62.8906 53.2188 53.4219 Q53.2188 48.9219 51.5312 44.8906 Q49.8594 40.875 45.4062 35.4062 Q44.1875 33.9844 37.6406 27.2188 Q31.1094 20.4531 19.1875 8.29688"/></defs><g id="g60" transform="translate(109.69218337 26.0848664648)scale(0.07 -0.07)"><use id="use62" xlink:href="#BitstreamVeraSans-Roman-32"/><use id="use64" x="63.623" xlink:href="#BitstreamVeraSans-Roman-37"/></g></g><g id="patch_6"><path style="fill:#fff;stroke:#000" id="path67" d="M120.965 31.5278 L135.714 31.5278 L135.714 16.7789 L120.965 16.7789 z"/></g><g id="text_5"><defs id="defs70"><path id="BitstreamVeraSans-Roman-39" d="M10.9844 1.51562 L10.9844 10.5 Q14.7031 8.73438 18.5 7.8125 Q22.3125 6.89062 25.9844 6.89062 Q35.75 6.89062 40.8906 13.4531 Q46.0469 20.0156 46.7812 33.4062 Q43.9531 29.2031 39.5938 26.9531 Q35.25 24.7031 29.9844 24.7031 Q19.0469 24.7031 12.6719 31.3125 Q6.29688 37.9375 6.29688 49.4219 Q6.29688 60.6406 12.9375 67.4219 Q19.5781 74.2188 30.6094 74.2188 Q43.2656 74.2188 49.9219 64.5156 Q56.5938 54.8281 56.5938 36.375 Q56.5938 19.1406 48.4062 8.85938 Q40.2344 -1.42188 26.4219 -1.42188 Q22.7031 -1.42188 18.8906 -0.6875 Q15.0938 0.046875 10.9844 1.51562 M30.6094 32.4219 Q37.25 32.4219 41.125 36.9531 Q45.0156 41.5 45.0156 49.4219 Q45.0156 57.2812 41.125 61.8438 Q37.25 66.4062 30.6094 66.4062 Q23.9688 66.4062 20.0938 61.8438 Q16.2188 57.2812 16.2188 49.4219 Q16.2188 41.5 20.0938 36.9531 Q23.9688 32.4219 30.6094 32.4219"/></defs><g id="g73" transform="translate(124.516003923 26.0848664648)scale(0.07 -0.07)"><use id="use75" xlink:href="#BitstreamVeraSans-Roman-31"/><use id="use77" x="63.623" xlink:href="#BitstreamVeraSans-Roman-39"/></g></g><g id="patch_7"><path style="fill:#fff;stroke:#000" id="path80" d="M135.714 31.5278 L150.463 31.5278 L150.463 16.7789 L135.714 16.7789 z"/></g><g id="text_6"><g id="g83" transform="translate(139.258340102 26.0848664648)scale(0.07 -0.07)"><use id="use85" xlink:href="#BitstreamVeraSans-Roman-31"/><use id="use87" x="63.623" xlink:href="#BitstreamVeraSans-Roman-38"/></g></g><g id="patch_8"><path style="fill:#fff;stroke:#000" id="path90" d="M150.463 31.5278 L165.211 31.5278 L165.211 16.7789 L150.463 16.7789 z"/></g><g id="text_7"><g id="g93" transform="translate(154.00723878 26.0848664648)scale(0.07 -0.07)"><use id="use95" xlink:href="#BitstreamVeraSans-Roman-31"/><use id="use97" x="63.623" xlink:href="#BitstreamVeraSans-Roman-38"/></g></g><g id="patch_9"><path style="fill:#fff;stroke:#000" id="path100" d="M61.9692 46.2767 L76.7181 46.2767 L76.7181 31.5278 L61.9692 31.5278 z"/></g><g id="text_8"><g id="g103" transform="translate(65.3842373348 40.8337651432)scale(0.07 -0.07)"><use id="use105" xlink:href="#BitstreamVeraSans-Roman-34"/><use id="use107" x="63.623" xlink:href="#BitstreamVeraSans-Roman-31"/></g></g><g id="patch_10"><path style="fill:#fff;stroke:#000" id="path110" d="M76.7181 46.2767 L91.467 46.2767 L91.467 31.5278 L76.7181 31.5278 z"/></g><g id="text_9"><g id="g113" transform="translate(80.0915735132 40.8337651432)scale(0.07 -0.07)"><use id="use115" xlink:href="#BitstreamVeraSans-Roman-32"/><use id="use117" x="63.623" xlink:href="#BitstreamVeraSans-Roman-34"/></g></g><g id="patch_11"><path style="fill:#fff;stroke:#000" id="path120" d="M91.467 46.2767 L106.216 46.2767 L106.216 31.5278 L91.467 31.5278 z"/></g><g id="text_10"><g id="g123" transform="translate(94.8404721916 40.8337651432)scale(0.07 -0.07)"><use id="use125" xlink:href="#BitstreamVeraSans-Roman-32"/><use id="use127" x="63.623" xlink:href="#BitstreamVeraSans-Roman-34"/></g></g><g id="patch_12"><path style="fill:#fff;stroke:#000" id="path130" d="M106.216 46.2767 L120.965 46.2767 L120.965 31.5278 L106.216 31.5278 z"/></g><g id="text_11"><g id="g133" transform="translate(109.760542745 40.8337651432)scale(0.07 -0.07)"><use id="use135" xlink:href="#BitstreamVeraSans-Roman-31"/><use id="use137" x="63.623" xlink:href="#BitstreamVeraSans-Roman-38"/></g></g><g id="patch_13"><path style="fill:#fff;stroke:#000" id="path140" d="M120.965 46.2767 L135.714 46.2767 L135.714 31.5278 L120.965 31.5278 z"/></g><g id="text_12"><defs id="defs143"><path id="BitstreamVeraSans-Roman-36" d="M33.0156 40.375 Q26.375 40.375 22.4844 35.8281 Q18.6094 31.2969 18.6094 23.3906 Q18.6094 15.5312 22.4844 10.9531 Q26.375 6.39062 33.0156 6.39062 Q39.6562 6.39062 43.5312 10.9531 Q47.4062 15.5312 47.4062 23.3906 Q47.4062 31.2969 43.5312 35.8281 Q39.6562 40.375 33.0156 40.375 M52.5938 71.2969 L52.5938 62.3125 Q48.875 64.0625 45.0938 64.9844 Q41.3125 65.9219 37.5938 65.9219 Q27.8281 65.9219 22.6719 59.3281 Q17.5312 52.7344 16.7969 39.4062 Q19.6719 43.6562 24.0156 45.9219 Q28.375 48.1875 33.5938 48.1875 Q44.5781 48.1875 50.9531 41.5156 Q57.3281 34.8594 57.3281 23.3906 Q57.3281 12.1562 50.6875 5.35938 Q44.0469 -1.42188 33.0156 -1.42188 Q20.3594 -1.42188 13.6719 8.26562 Q6.98438 17.9688 6.98438 36.375 Q6.98438 53.6562 15.1875 63.9375 Q23.3906 74.2188 37.2031 74.2188 Q40.9219 74.2188 44.7031 73.4844 Q48.4844 72.75 52.5938 71.2969"/></defs><g id="g146" transform="translate(124.490300798 40.8337651432)scale(0.07 -0.07)"><use id="use148" xlink:href="#BitstreamVeraSans-Roman-31"/><use id="use150" x="63.623" xlink:href="#BitstreamVeraSans-Roman-36"/></g></g><g id="patch_14"><path style="fill:#fff;stroke:#000" id="path153" d="M135.714 46.2767 L150.463 46.2767 L150.463 31.5278 L135.714 31.5278 z"/></g><g id="text_13"><g id="g156" transform="translate(139.342011977 40.8337651432)scale(0.07 -0.07)"><use id="use158" xlink:href="#BitstreamVeraSans-Roman-31"/><use id="use160" x="63.623" xlink:href="#BitstreamVeraSans-Roman-31"/></g></g><g id="patch_15"><path style="fill:#fff;stroke:#000" id="path163" d="M150.463 46.2767 L165.211 46.2767 L165.211 31.5278 L150.463 31.5278 z"/></g><g id="text_14"><g id="g166" transform="translate(153.962941905 40.8337651432)scale(0.07 -0.07)"><use id="use168" xlink:href="#BitstreamVeraSans-Roman-32"/><use id="use170" x="63.623" xlink:href="#BitstreamVeraSans-Roman-31"/></g></g><g id="patch_16"><path style="fill:#fff;stroke:#000" id="path173" d="M61.9692 61.0256 L76.7181 61.0256 L76.7181 46.2767 L61.9692 46.2767 z"/></g><g id="text_15"><g id="g176" transform="translate(67.5936123348 55.5826638216)scale(0.07 -0.07)"><use id="use178" xlink:href="#BitstreamVeraSans-Roman-38"/></g></g><g id="patch_17"><path style="fill:#fff;stroke:#000" id="path181" d="M76.7181 61.0256 L91.467 61.0256 L91.467 46.2767 L76.7181 46.2767 z"/></g><g id="text_16"><defs id="defs184"><path id="BitstreamVeraSans-Roman-33" d="M40.5781 39.3125 Q47.6562 37.7969 51.625 33 Q55.6094 28.2188 55.6094 21.1875 Q55.6094 10.4062 48.1875 4.48438 Q40.7656 -1.42188 27.0938 -1.42188 Q22.5156 -1.42188 17.6562 -0.515625 Q12.7969 0.390625 7.625 2.20312 L7.625 11.7188 Q11.7188 9.32812 16.5938 8.10938 Q21.4844 6.89062 26.8125 6.89062 Q36.0781 6.89062 40.9375 10.5469 Q45.7969 14.2031 45.7969 21.1875 Q45.7969 27.6406 41.2812 31.2656 Q36.7656 34.9062 28.7188 34.9062 L20.2188 34.9062 L20.2188 43.0156 L29.1094 43.0156 Q36.375 43.0156 40.2344 45.9219 Q44.0938 48.8281 44.0938 54.2969 Q44.0938 59.9062 40.1094 62.9062 Q36.1406 65.9219 28.7188 65.9219 Q24.6562 65.9219 20.0156 65.0312 Q15.375 64.1562 9.8125 62.3125 L9.8125 71.0938 Q15.4375 72.6562 20.3438 73.4375 Q25.25 74.2188 29.5938 74.2188 Q40.8281 74.2188 47.3594 69.1094 Q53.9062 64.0156 53.9062 55.3281 Q53.9062 49.2656 50.4375 45.0938 Q46.9688 40.9219 40.5781 39.3125"/></defs><g id="g187" transform="translate(80.3037610132 55.5826638216)scale(0.07 -0.07)"><use id="use189" xlink:href="#BitstreamVeraSans-Roman-31"/><use id="use191" x="63.623" xlink:href="#BitstreamVeraSans-Roman-33"/></g></g><g id="patch_18"><path style="fill:#d3d3d3;stroke:#000" id="path194" d="M91.467 61.0256 L106.216 61.0256 L106.216 46.2767 L91.467 46.2767 z"/></g><g id="text_17"><g id="g197" transform="translate(94.9246909416 55.5826638216)scale(0.07 -0.07)"><use id="use199" xlink:href="#BitstreamVeraSans-Roman-32"/><use id="use201" x="63.623" xlink:href="#BitstreamVeraSans-Roman-33"/></g></g><g id="patch_19"><path style="fill:#d3d3d3;stroke:#000" id="path204" d="M106.216 61.0256 L120.965 61.0256 L120.965 46.2767 L106.216 46.2767 z"/></g><g id="text_18"><g id="g207" transform="translate(109.639136495 55.5826638216)scale(0.07 -0.07)"><use id="use209" xlink:href="#BitstreamVeraSans-Roman-32"/><use id="use211" x="63.623" xlink:href="#BitstreamVeraSans-Roman-39"/></g></g><g id="patch_20"><path style="fill:#d3d3d3;stroke:#000" id="path214" d="M120.965 61.0256 L135.714 61.0256 L135.714 46.2767 L120.965 46.2767 z"/></g><g id="text_19"><g id="g217" transform="translate(124.516003923 55.5826638216)scale(0.07 -0.07)"><use id="use219" xlink:href="#BitstreamVeraSans-Roman-31"/><use id="use221" x="63.623" xlink:href="#BitstreamVeraSans-Roman-39"/></g></g><g id="patch_21"><path style="fill:#fff;stroke:#000" id="path224" d="M135.714 61.0256 L150.463 61.0256 L150.463 46.2767 L135.714 46.2767 z"/></g><g id="text_20"><g id="g227" transform="translate(139.299355727 55.5826638216)scale(0.07 -0.07)"><use id="use229" xlink:href="#BitstreamVeraSans-Roman-31"/><use id="use231" x="63.623" xlink:href="#BitstreamVeraSans-Roman-33"/></g></g><g id="patch_22"><path style="fill:#fff;stroke:#000" id="path234" d="M150.463 61.0256 L165.211 61.0256 L165.211 46.2767 L150.463 46.2767 z"/></g><g id="text_21"><g id="g237" transform="translate(153.88583253 55.5826638216)scale(0.07 -0.07)"><use id="use239" xlink:href="#BitstreamVeraSans-Roman-32"/><use id="use241" x="63.623" xlink:href="#BitstreamVeraSans-Roman-39"/></g></g><g id="patch_23"><path style="fill:#fff;stroke:#000" id="path244" d="M61.9692 75.7744 L76.7181 75.7744 L76.7181 61.0256 L61.9692 61.0256 z"/></g><g id="text_22"><g id="g247" transform="translate(65.4695498348 70.3315625)scale(0.07 -0.07)"><use id="use249" xlink:href="#BitstreamVeraSans-Roman-32"/><use id="use251" x="63.623" xlink:href="#BitstreamVeraSans-Roman-31"/></g></g><g id="patch_24"><path style="fill:#fff;stroke:#000" id="path254" d="M76.7181 75.7744 L91.467 75.7744 L91.467 61.0256 L76.7181 61.0256 z"/></g><g id="text_23"><g id="g257" transform="translate(80.2561828882 70.3315625)scale(0.07 -0.07)"><use id="use259" xlink:href="#BitstreamVeraSans-Roman-33"/><use id="use261" x="63.623" xlink:href="#BitstreamVeraSans-Roman-32"/></g></g><g id="patch_25"><path style="fill:#d3d3d3;stroke:#000" id="path264" d="M91.467 75.7744 L106.216 75.7744 L106.216 61.0256 L91.467 61.0256 z"/></g><g id="text_24"><g id="g267" transform="translate(95.0182065666 70.3315625)scale(0.07 -0.07)"><use id="use269" xlink:href="#BitstreamVeraSans-Roman-31"/><use id="use271" x="63.623" xlink:href="#BitstreamVeraSans-Roman-39"/></g></g><g id="patch_26"><path style="fill:#d3d3d3;stroke:#000" id="path274" d="M106.216 75.7744 L120.965 75.7744 L120.965 61.0256 L106.216 61.0256 z"/></g><g id="text_25"><g id="g277" transform="translate(109.58937087 70.3315625)scale(0.07 -0.07)"><use id="use279" xlink:href="#BitstreamVeraSans-Roman-32"/><use id="use281" x="63.623" xlink:href="#BitstreamVeraSans-Roman-34"/></g></g><g id="patch_27"><path style="fill:#d3d3d3;stroke:#000" id="path284" d="M120.965 75.7744 L135.714 75.7744 L135.714 61.0256 L120.965 61.0256 z"/></g><g id="text_26"><g id="g287" transform="translate(124.569050798 70.3315625)scale(0.07 -0.07)"><use id="use289" xlink:href="#BitstreamVeraSans-Roman-31"/><use id="use291" x="63.623" xlink:href="#BitstreamVeraSans-Roman-37"/></g></g><g id="patch_28"><path style="fill:#fff;stroke:#000" id="path294" d="M135.714 75.7744 L150.463 75.7744 L150.463 61.0256 L135.714 61.0256 z"/></g><g id="text_27"><g id="g297" transform="translate(139.299355727 70.3315625)scale(0.07 -0.07)"><use id="use299" xlink:href="#BitstreamVeraSans-Roman-31"/><use id="use301" x="63.623" xlink:href="#BitstreamVeraSans-Roman-33"/></g></g><g id="patch_29"><path style="fill:#fff;stroke:#000" id="path304" d="M150.463 75.7744 L165.211 75.7744 L165.211 61.0256 L150.463 61.0256 z"/></g><g id="text_28"><g id="g307" transform="translate(154.066848155 70.3315625)scale(0.07 -0.07)"><use id="use309" xlink:href="#BitstreamVeraSans-Roman-31"/><use id="use311" x="63.623" xlink:href="#BitstreamVeraSans-Roman-37"/></g></g><g id="patch_30"><path style="fill:#fff;stroke:#000" id="path314" d="M61.9692 90.5233 L76.7181 90.5233 L76.7181 75.7744 L61.9692 75.7744 z"/></g><g id="text_29"><g id="g317" transform="translate(65.3858779598 85.0804611784)scale(0.07 -0.07)"><use id="use319" xlink:href="#BitstreamVeraSans-Roman-32"/><use id="use321" x="63.623" xlink:href="#BitstreamVeraSans-Roman-38"/></g></g><g id="patch_31"><path style="fill:#fff;stroke:#000" id="path324" d="M76.7181 90.5233 L91.467 90.5233 L91.467 75.7744 L76.7181 75.7744 z"/></g><g id="text_30"><g id="g327" transform="translate(80.0915735132 85.0804611784)scale(0.07 -0.07)"><use id="use329" xlink:href="#BitstreamVeraSans-Roman-32"/><use id="use331" x="63.623" xlink:href="#BitstreamVeraSans-Roman-34"/></g></g><g id="patch_32"><path style="fill:#d3d3d3;stroke:#000" id="path334" d="M91.467 90.5233 L106.216 90.5233 L106.216 75.7744 L91.467 75.7744 z"/></g><g id="text_31"><g id="g337" transform="translate(95.0116440666 85.0804611784)scale(0.07 -0.07)"><use id="use339" xlink:href="#BitstreamVeraSans-Roman-31"/><use id="use341" x="63.623" xlink:href="#BitstreamVeraSans-Roman-38"/></g></g><g id="patch_33"><path style="fill:#d3d3d3;stroke:#000" id="path344" d="M106.216 90.5233 L120.965 90.5233 L120.965 75.7744 L106.216 75.7744 z"/></g><g id="text_32"><g id="g347" transform="translate(109.69218337 85.0804611784)scale(0.07 -0.07)"><use id="use349" xlink:href="#BitstreamVeraSans-Roman-32"/><use id="use351" x="63.623" xlink:href="#BitstreamVeraSans-Roman-37"/></g></g><g id="patch_34"><path style="fill:#d3d3d3;stroke:#000" id="path354" d="M120.965 90.5233 L135.714 90.5233 L135.714 75.7744 L120.965 75.7744 z"/></g><g id="text_33"><g id="g357" transform="translate(124.516003923 85.0804611784)scale(0.07 -0.07)"><use id="use359" xlink:href="#BitstreamVeraSans-Roman-31"/><use id="use361" x="63.623" xlink:href="#BitstreamVeraSans-Roman-39"/></g></g><g id="patch_35"><path style="fill:#fff;stroke:#000" id="path364" d="M135.714 90.5233 L150.463 90.5233 L150.463 75.7744 L135.714 75.7744 z"/></g><g id="text_34"><g id="g367" transform="translate(139.087168227 85.0804611784)scale(0.07 -0.07)"><use id="use369" xlink:href="#BitstreamVeraSans-Roman-32"/><use id="use371" x="63.623" xlink:href="#BitstreamVeraSans-Roman-34"/></g></g><g id="patch_36"><path style="fill:#fff;stroke:#000" id="path374" d="M150.463 90.5233 L165.211 90.5233 L165.211 75.7744 L150.463 75.7744 z"/></g><g id="text_35"><g id="g377" transform="translate(153.962941905 85.0804611784)scale(0.07 -0.07)"><use id="use379" xlink:href="#BitstreamVeraSans-Roman-32"/><use id="use381" x="63.623" xlink:href="#BitstreamVeraSans-Roman-31"/></g></g><g id="patch_37"><path style="fill:#fff;stroke:#000" id="path384" d="M61.9692 105.272 L76.7181 105.272 L76.7181 90.5233 L61.9692 90.5233 z"/></g><g id="text_36"><g id="g387" transform="translate(65.5204092098 99.8293598568)scale(0.07 -0.07)"><use id="use389" xlink:href="#BitstreamVeraSans-Roman-31"/><use id="use391" x="63.623" xlink:href="#BitstreamVeraSans-Roman-39"/></g></g><g id="patch_38"><path style="fill:#fff;stroke:#000" id="path394" d="M76.7181 105.272 L91.467 105.272 L91.467 90.5233 L76.7181 90.5233 z"/></g><g id="text_37"><g id="g397" transform="translate(80.0915735132 99.8293598568)scale(0.07 -0.07)"><use id="use399" xlink:href="#BitstreamVeraSans-Roman-32"/><use id="use401" x="63.623" xlink:href="#BitstreamVeraSans-Roman-34"/></g></g><g id="patch_39"><path style="fill:#fff;stroke:#000" id="path404" d="M91.467 105.272 L106.216 105.272 L106.216 90.5233 L91.467 90.5233 z"/></g><g id="text_38"><g id="g407" transform="translate(94.9946909416 99.8293598568)scale(0.07 -0.07)"><use id="use409" xlink:href="#BitstreamVeraSans-Roman-32"/><use id="use411" x="63.623" xlink:href="#BitstreamVeraSans-Roman-32"/></g></g><g id="patch_40"><path style="fill:#fff;stroke:#000" id="path414" d="M106.216 105.272 L120.965 105.272 L120.965 90.5233 L106.216 90.5233 z"/></g><g id="text_39"><g id="g417" transform="translate(109.80155837 99.8293598568)scale(0.07 -0.07)"><use id="use419" xlink:href="#BitstreamVeraSans-Roman-31"/><use id="use421" x="63.623" xlink:href="#BitstreamVeraSans-Roman-33"/></g></g><g id="patch_41"><path style="fill:#fff;stroke:#000" id="path424" d="M120.965 105.272 L135.714 105.272 L135.714 90.5233 L120.965 90.5233 z"/></g><g id="text_40"><g id="g427" transform="translate(124.492488298 99.8293598568)scale(0.07 -0.07)"><use id="use429" xlink:href="#BitstreamVeraSans-Roman-32"/><use id="use431" x="63.623" xlink:href="#BitstreamVeraSans-Roman-32"/></g></g><g id="patch_42"><path style="fill:#fff;stroke:#000" id="path434" d="M135.714 105.272 L150.463 105.272 L150.463 90.5233 L135.714 90.5233 z"/></g><g id="text_41"><g id="g437" transform="translate(139.214043227 99.8293598568)scale(0.07 -0.07)"><use id="use439" xlink:href="#BitstreamVeraSans-Roman-32"/><use id="use441" x="63.623" xlink:href="#BitstreamVeraSans-Roman-31"/></g></g><g id="patch_43"><path style="fill:#fff;stroke:#000" id="path444" d="M150.463 105.272 L165.211 105.272 L165.211 90.5233 L150.463 90.5233 z"/></g><g id="text_42"><g id="g447" transform="translate(154.048254405 99.8293598568)scale(0.07 -0.07)"><use id="use449" xlink:href="#BitstreamVeraSans-Roman-31"/><use id="use451" x="63.623" xlink:href="#BitstreamVeraSans-Roman-33"/></g></g><g id="patch_44"><path style="fill:#fff;stroke:#000" id="path454" d="M61.9692 120.021 L76.7181 120.021 L76.7181 105.272 L61.9692 105.272 z"/></g><g id="text_43"><g id="g457" transform="translate(65.5548623348 114.578258535)scale(0.07 -0.07)"><use id="use459" xlink:href="#BitstreamVeraSans-Roman-31"/><use id="use461" x="63.623" xlink:href="#BitstreamVeraSans-Roman-33"/></g></g><g id="patch_45"><path style="fill:#fff;stroke:#000" id="path464" d="M76.7181 120.021 L91.467 120.021 L91.467 105.272 L76.7181 105.272 z"/></g><g id="text_44"><g id="g467" transform="translate(80.3223547632 114.578258535)scale(0.07 -0.07)"><use id="use469" xlink:href="#BitstreamVeraSans-Roman-31"/><use id="use471" x="63.623" xlink:href="#BitstreamVeraSans-Roman-37"/></g></g><g id="patch_46"><path style="fill:#fff;stroke:#000" id="path474" d="M91.467 120.021 L106.216 120.021 L106.216 105.272 L91.467 105.272 z"/></g><g id="text_45"><g id="g477" transform="translate(94.9432846916 114.578258535)scale(0.07 -0.07)"><use id="use479" xlink:href="#BitstreamVeraSans-Roman-32"/><use id="use481" x="63.623" xlink:href="#BitstreamVeraSans-Roman-37"/></g></g><g id="patch_47"><path style="fill:#fff;stroke:#000" id="path484" d="M106.216 120.021 L120.965 120.021 L120.965 105.272 L106.216 105.272 z"/></g><g id="text_46"><g id="g487" transform="translate(109.767105245 114.578258535)scale(0.07 -0.07)"><use id="use489" xlink:href="#BitstreamVeraSans-Roman-31"/><use id="use491" x="63.623" xlink:href="#BitstreamVeraSans-Roman-39"/></g></g><g id="patch_48"><path style="fill:#fff;stroke:#000" id="path494" d="M120.965 120.021 L135.714 120.021 L135.714 105.272 L120.965 105.272 z"/></g><g id="text_47"><g id="g497" transform="translate(124.465144548 114.578258535)scale(0.07 -0.07)"><use id="use499" xlink:href="#BitstreamVeraSans-Roman-32"/><use id="use501" x="63.623" xlink:href="#BitstreamVeraSans-Roman-31"/></g></g><g id="patch_49"><path style="fill:#fff;stroke:#000" id="path504" d="M135.714 120.021 L150.463 120.021 L150.463 105.272 L135.714 105.272 z"/></g><g id="text_48"><g id="g507" transform="translate(139.214043227 114.578258535)scale(0.07 -0.07)"><use id="use509" xlink:href="#BitstreamVeraSans-Roman-32"/><use id="use511" x="63.623" xlink:href="#BitstreamVeraSans-Roman-31"/></g></g><g id="patch_50"><path style="fill:#fff;stroke:#000" id="path514" d="M150.463 120.021 L165.211 120.021 L165.211 105.272 L150.463 105.272 z"/></g><g id="text_49"><g id="g517" transform="translate(153.836066905 114.578258535)scale(0.07 -0.07)"><use id="use519" xlink:href="#BitstreamVeraSans-Roman-32"/><use id="use521" x="63.623" xlink:href="#BitstreamVeraSans-Roman-34"/></g></g></g></g><g id="axes_2"><g id="table_2"><g id="patch_51"><path style="fill:#fff;stroke:#000" id="path526" d="M170.742 31.5278 L185.491 31.5278 L185.491 16.7789 L170.742 16.7789 z"/></g><g id="patch_52"><path style="fill:#fff;stroke:#000" id="path529" d="M185.491 31.5278 L200.24 31.5278 L200.24 16.7789 L185.491 16.7789 z"/></g><g id="patch_53"><path style="fill:#fff;stroke:#000" id="path532" d="M200.24 31.5278 L214.989 31.5278 L214.989 16.7789 L200.24 16.7789 z"/></g><g id="patch_54"><path style="fill:#fff;stroke:#000" id="path535" d="M214.989 31.5278 L229.738 31.5278 L229.738 16.7789 L214.989 16.7789 z"/></g><g id="patch_55"><path style="fill:#fff;stroke:#000" id="path538" d="M229.738 31.5278 L244.487 31.5278 L244.487 16.7789 L229.738 16.7789 z"/></g><g id="patch_56"><path style="fill:#fff;stroke:#000" id="path541" d="M244.487 31.5278 L259.236 31.5278 L259.236 16.7789 L244.487 16.7789 z"/></g><g id="patch_57"><path style="fill:#fff;stroke:#000" id="path544" d="M259.236 31.5278 L273.985 31.5278 L273.985 16.7789 L259.236 16.7789 z"/></g><g id="patch_58"><path style="fill:#fff;stroke:#000" id="path547" d="M170.742 46.2767 L185.491 46.2767 L185.491 31.5278 L170.742 31.5278 z"/></g><g id="patch_59"><path style="fill:#fff;stroke:#000" id="path550" d="M185.491 46.2767 L200.24 46.2767 L200.24 31.5278 L185.491 31.5278 z"/></g><g id="patch_60"><path style="fill:#fff;stroke:#000" id="path553" d="M200.24 46.2767 L214.989 46.2767 L214.989 31.5278 L200.24 31.5278 z"/></g><g id="patch_61"><path style="fill:#fff;stroke:#000" id="path556" d="M214.989 46.2767 L229.738 46.2767 L229.738 31.5278 L214.989 31.5278 z"/></g><g id="patch_62"><path style="fill:#fff;stroke:#000" id="path559" d="M229.738 46.2767 L244.487 46.2767 L244.487 31.5278 L229.738 31.5278 z"/></g><g id="patch_63"><path style="fill:#fff;stroke:#000" id="path562" d="M244.487 46.2767 L259.236 46.2767 L259.236 31.5278 L244.487 31.5278 z"/></g><g id="patch_64"><path style="fill:#fff;stroke:#000" id="path565" d="M259.236 46.2767 L273.985 46.2767 L273.985 31.5278 L259.236 31.5278 z"/></g><g id="patch_65"><path style="fill:#fff;stroke:#000" id="path568" d="M170.742 61.0256 L185.491 61.0256 L185.491 46.2767 L170.742 46.2767 z"/></g><g id="patch_66"><path style="fill:#fff;stroke:#000" id="path571" d="M185.491 61.0256 L200.24 61.0256 L200.24 46.2767 L185.491 46.2767 z"/></g><g id="patch_67"><path style="fill:#d3d3d3;stroke:#000" id="path574" d="M200.24 61.0256 L214.989 61.0256 L214.989 46.2767 L200.24 46.2767 z"/></g><g id="text_50"><defs id="defs577"><path id="BitstreamVeraSans-Roman-2d" d="M4.89062 31.3906 L31.2031 31.3906 L31.2031 23.3906 L4.89062 23.3906 z"/></defs><g id="g580" transform="translate(204.59524057 55.5826638216)scale(0.07 -0.07)"><use id="use582" xlink:href="#BitstreamVeraSans-Roman-2d"/><use id="use584" x="36.084" xlink:href="#BitstreamVeraSans-Roman-37"/></g></g><g id="patch_68"><path style="fill:#d3d3d3;stroke:#000" id="path587" d="M214.989 61.0256 L229.738 61.0256 L229.738 46.2767 L214.989 46.2767 z"/></g><g id="text_51"><g id="g590" transform="translate(217.168670498 55.5826638216)scale(0.07 -0.07)"><use id="use592" xlink:href="#BitstreamVeraSans-Roman-2d"/><use id="use594" x="36.084" xlink:href="#BitstreamVeraSans-Roman-33"/><use id="use596" x="99.707" xlink:href="#BitstreamVeraSans-Roman-32"/></g></g><g id="patch_69"><path style="fill:#d3d3d3;stroke:#000" id="path599" d="M229.738 61.0256 L244.487 61.0256 L244.487 46.2767 L229.738 46.2767 z"/></g><g id="text_52"><g id="g602" transform="translate(234.117100427 55.5826638216)scale(0.07 -0.07)"><use id="use604" xlink:href="#BitstreamVeraSans-Roman-2d"/><use id="use606" x="36.084" xlink:href="#BitstreamVeraSans-Roman-31"/></g></g><g id="patch_70"><path style="fill:#fff;stroke:#000" id="path609" d="M244.487 61.0256 L259.236 61.0256 L259.236 46.2767 L244.487 46.2767 z"/></g><g id="patch_71"><path style="fill:#fff;stroke:#000" id="path612" d="M259.236 61.0256 L273.985 61.0256 L273.985 46.2767 L259.236 46.2767 z"/></g><g id="patch_72"><path style="fill:#fff;stroke:#000" id="path615" d="M170.742 75.7744 L185.491 75.7744 L185.491 61.0256 L170.742 61.0256 z"/></g><g id="patch_73"><path style="fill:#fff;stroke:#000" id="path618" d="M185.491 75.7744 L200.24 75.7744 L200.24 61.0256 L185.491 61.0256 z"/></g><g id="patch_74"><path style="fill:#d3d3d3;stroke:#000" id="path621" d="M200.24 75.7744 L214.989 75.7744 L214.989 61.0256 L200.24 61.0256 z"/></g><g id="text_53"><g id="g624" transform="translate(203.740474945 70.3315625)scale(0.07 -0.07)"><use id="use626" xlink:href="#BitstreamVeraSans-Roman-32"/><use id="use628" x="63.623" xlink:href="#BitstreamVeraSans-Roman-31"/></g></g><g id="patch_75"><path style="fill:#d3d3d3;stroke:#000" id="path631" d="M214.989 75.7744 L229.738 75.7744 L229.738 61.0256 L214.989 61.0256 z"/></g><g id="text_54"><g id="g634" transform="translate(219.241326748 70.3315625)scale(0.07 -0.07)"><use id="use636" xlink:href="#BitstreamVeraSans-Roman-2d"/><use id="use638" x="36.084" xlink:href="#BitstreamVeraSans-Roman-34"/></g></g><g id="patch_76"><path style="fill:#d3d3d3;stroke:#000" id="path641" d="M229.738 75.7744 L244.487 75.7744 L244.487 61.0256 L229.738 61.0256 z"/></g><g id="text_55"><g id="g644" transform="translate(235.471709802 70.3315625)scale(0.07 -0.07)"><use id="use646" xlink:href="#BitstreamVeraSans-Roman-37"/></g></g><g id="patch_77"><path style="fill:#fff;stroke:#000" id="path649" d="M244.487 75.7744 L259.236 75.7744 L259.236 61.0256 L244.487 61.0256 z"/></g><g id="patch_78"><path style="fill:#fff;stroke:#000" id="path652" d="M259.236 75.7744 L273.985 75.7744 L273.985 61.0256 L259.236 61.0256 z"/></g><g id="patch_79"><path style="fill:#fff;stroke:#000" id="path655" d="M170.742 90.5233 L185.491 90.5233 L185.491 75.7744 L170.742 75.7744 z"/></g><g id="patch_80"><path style="fill:#fff;stroke:#000" id="path658" d="M185.491 90.5233 L200.24 90.5233 L200.24 75.7744 L185.491 75.7744 z"/></g><g id="patch_81"><path style="fill:#d3d3d3;stroke:#000" id="path661" d="M200.24 90.5233 L214.989 90.5233 L214.989 75.7744 L200.24 75.7744 z"/></g><g id="text_56"><g id="g664" transform="translate(203.649693695 85.0804611784)scale(0.07 -0.07)"><use id="use666" xlink:href="#BitstreamVeraSans-Roman-32"/><use id="use668" x="63.623" xlink:href="#BitstreamVeraSans-Roman-30"/></g></g><g id="patch_82"><path style="fill:#d3d3d3;stroke:#000" id="path671" d="M214.989 90.5233 L229.738 90.5233 L229.738 75.7744 L214.989 75.7744 z"/></g><g id="text_57"><g id="g674" transform="translate(217.014451748 85.0804611784)scale(0.07 -0.07)"><use id="use676" xlink:href="#BitstreamVeraSans-Roman-2d"/><use id="use678" x="36.084" xlink:href="#BitstreamVeraSans-Roman-33"/><use id="use680" x="99.707" xlink:href="#BitstreamVeraSans-Roman-34"/></g></g><g id="patch_83"><path style="fill:#d3d3d3;stroke:#000" id="path683" d="M229.738 90.5233 L244.487 90.5233 L244.487 75.7744 L229.738 75.7744 z"/></g><g id="text_58"><g id="g686" transform="translate(233.239366052 85.0804611784)scale(0.07 -0.07)"><use id="use688" xlink:href="#BitstreamVeraSans-Roman-31"/><use id="use690" x="63.623" xlink:href="#BitstreamVeraSans-Roman-34"/></g></g><g id="patch_84"><path style="fill:#fff;stroke:#000" id="path693" d="M244.487 90.5233 L259.236 90.5233 L259.236 75.7744 L244.487 75.7744 z"/></g><g id="patch_85"><path style="fill:#fff;stroke:#000" id="path696" d="M259.236 90.5233 L273.985 90.5233 L273.985 75.7744 L259.236 75.7744 z"/></g><g id="patch_86"><path style="fill:#fff;stroke:#000" id="path699" d="M170.742 105.272 L185.491 105.272 L185.491 90.5233 L170.742 90.5233 z"/></g><g id="patch_87"><path style="fill:#fff;stroke:#000" id="path702" d="M185.491 105.272 L200.24 105.272 L200.24 90.5233 L185.491 90.5233 z"/></g><g id="patch_88"><path style="fill:#fff;stroke:#000" id="path705" d="M200.24 105.272 L214.989 105.272 L214.989 90.5233 L200.24 90.5233 z"/></g><g id="patch_89"><path style="fill:#fff;stroke:#000" id="path708" d="M214.989 105.272 L229.738 105.272 L229.738 90.5233 L214.989 90.5233 z"/></g><g id="patch_90"><path style="fill:#fff;stroke:#000" id="path711" d="M229.738 105.272 L244.487 105.272 L244.487 90.5233 L229.738 90.5233 z"/></g><g id="patch_91"><path style="fill:#fff;stroke:#000" id="path714" d="M244.487 105.272 L259.236 105.272 L259.236 90.5233 L244.487 90.5233 z"/></g><g id="patch_92"><path style="fill:#fff;stroke:#000" id="path717" d="M259.236 105.272 L273.985 105.272 L273.985 90.5233 L259.236 90.5233 z"/></g><g id="patch_93"><path style="fill:#fff;stroke:#000" id="path720" d="M170.742 120.021 L185.491 120.021 L185.491 105.272 L170.742 105.272 z"/></g><g id="patch_94"><path style="fill:#fff;stroke:#000" id="path723" d="M185.491 120.021 L200.24 120.021 L200.24 105.272 L185.491 105.272 z"/></g><g id="patch_95"><path style="fill:#fff;stroke:#000" id="path726" d="M200.24 120.021 L214.989 120.021 L214.989 105.272 L200.24 105.272 z"/></g><g id="patch_96"><path style="fill:#fff;stroke:#000" id="path729" d="M214.989 120.021 L229.738 120.021 L229.738 105.272 L214.989 105.272 z"/></g><g id="patch_97"><path style="fill:#fff;stroke:#000" id="path732" d="M229.738 120.021 L244.487 120.021 L244.487 105.272 L229.738 105.272 z"/></g><g id="patch_98"><path style="fill:#fff;stroke:#000" id="path735" d="M244.487 120.021 L259.236 120.021 L259.236 105.272 L244.487 105.272 z"/></g><g id="patch_99"><path style="fill:#fff;stroke:#000" id="path738" d="M259.236 120.021 L273.985 120.021 L273.985 105.272 L259.236 105.272 z"/></g></g></g><g id="axes_3"><g id="table_3"><g id="patch_100"><path style="fill:#fff;stroke:#000" id="path743" d="M279.515 31.5278 L294.264 31.5278 L294.264 16.7789 L279.515 16.7789 z"/></g><g id="text_59"><g id="g746" transform="translate(283.073774091 26.0848664648)scale(0.07 -0.07)"><use id="use748" xlink:href="#BitstreamVeraSans-Roman-37"/><use id="use750" x="63.623" xlink:href="#BitstreamVeraSans-Roman-32"/></g></g><g id="patch_101"><path style="fill:#fff;stroke:#000" id="path753" d="M294.264 31.5278 L309.013 31.5278 L309.013 16.7789 L294.264 16.7789 z"/></g><g id="text_60"><g id="g756" transform="translate(297.711657145 26.0848664648)scale(0.07 -0.07)"><use id="use758" xlink:href="#BitstreamVeraSans-Roman-37"/><use id="use760" x="63.623" xlink:href="#BitstreamVeraSans-Roman-38"/></g></g><g id="patch_102"><path style="fill:#fff;stroke:#000" id="path763" d="M309.013 31.5278 L323.762 31.5278 L323.762 16.7789 L309.013 16.7789 z"/></g><g id="text_61"><g id="g766" transform="translate(312.460555823 26.0848664648)scale(0.07 -0.07)"><use id="use768" xlink:href="#BitstreamVeraSans-Roman-37"/><use id="use770" x="63.623" xlink:href="#BitstreamVeraSans-Roman-38"/></g></g><g id="patch_103"><path style="fill:#fff;stroke:#000" id="path773" d="M323.762 31.5278 L338.511 31.5278 L338.511 16.7789 L323.762 16.7789 z"/></g><g id="text_62"><g id="g776" transform="translate(327.293126377 26.0848664648)scale(0.07 -0.07)"><use id="use778" xlink:href="#BitstreamVeraSans-Roman-37"/><use id="use780" x="63.623" xlink:href="#BitstreamVeraSans-Roman-31"/></g></g><g id="patch_104"><path style="fill:#fff;stroke:#000" id="path783" d="M338.511 31.5278 L353.26 31.5278 L353.26 16.7789 L338.511 16.7789 z"/></g><g id="text_63"><g id="g786" transform="translate(341.92225943 26.0848664648)scale(0.07 -0.07)"><use id="use788" xlink:href="#BitstreamVeraSans-Roman-36"/><use id="use790" x="63.623" xlink:href="#BitstreamVeraSans-Roman-39"/></g></g><g id="patch_105"><path style="fill:#fff;stroke:#000" id="path793" d="M353.26 31.5278 L368.009 31.5278 L368.009 16.7789 L353.26 16.7789 z"/></g><g id="text_64"><g id="g796" transform="translate(356.717095608 26.0848664648)scale(0.07 -0.07)"><use id="use798" xlink:href="#BitstreamVeraSans-Roman-38"/><use id="use800" x="63.623" xlink:href="#BitstreamVeraSans-Roman-37"/></g></g><g id="patch_106"><path style="fill:#fff;stroke:#000" id="path803" d="M368.009 31.5278 L382.758 31.5278 L382.758 16.7789 L368.009 16.7789 z"/></g><g id="text_65"><g id="g806" transform="translate(371.406384912 26.0848664648)scale(0.07 -0.07)"><use id="use808" xlink:href="#BitstreamVeraSans-Roman-38"/><use id="use810" x="63.623" xlink:href="#BitstreamVeraSans-Roman-38"/></g></g><g id="patch_107"><path style="fill:#fff;stroke:#000" id="path813" d="M279.515 46.2767 L294.264 46.2767 L294.264 31.5278 L279.515 31.5278 z"/></g><g id="text_66"><g id="g816" transform="translate(282.900961591 40.8337651432)scale(0.07 -0.07)"><use id="use818" xlink:href="#BitstreamVeraSans-Roman-36"/><use id="use820" x="63.623" xlink:href="#BitstreamVeraSans-Roman-36"/></g></g><g id="patch_108"><path style="fill:#fff;stroke:#000" id="path823" d="M294.264 46.2767 L309.013 46.2767 L309.013 31.5278 L294.264 31.5278 z"/></g><g id="text_67"><g id="g826" transform="translate(297.82267277 40.8337651432)scale(0.07 -0.07)"><use id="use828" xlink:href="#BitstreamVeraSans-Roman-37"/><use id="use830" x="63.623" xlink:href="#BitstreamVeraSans-Roman-32"/></g></g><g id="patch_109"><path style="fill:#fff;stroke:#000" id="path833" d="M309.013 46.2767 L323.762 46.2767 L323.762 31.5278 L309.013 31.5278 z"/></g><g id="text_68"><defs id="defs836"><path id="BitstreamVeraSans-Roman-35" d="M10.7969 72.9062 L49.5156 72.9062 L49.5156 64.5938 L19.8281 64.5938 L19.8281 46.7344 Q21.9688 47.4688 24.1094 47.8281 Q26.2656 48.1875 28.4219 48.1875 Q40.625 48.1875 47.75 41.5 Q54.8906 34.8125 54.8906 23.3906 Q54.8906 11.625 47.5625 5.09375 Q40.2344 -1.42188 26.9062 -1.42188 Q22.3125 -1.42188 17.5469 -0.640625 Q12.7969 0.140625 7.71875 1.70312 L7.71875 11.625 Q12.1094 9.23438 16.7969 8.0625 Q21.4844 6.89062 26.7031 6.89062 Q35.1562 6.89062 40.0781 11.3281 Q45.0156 15.7656 45.0156 23.3906 Q45.0156 31 40.0781 35.4375 Q35.1562 39.8906 26.7031 39.8906 Q22.75 39.8906 18.8125 39.0156 Q14.8906 38.1406 10.7969 36.2812 z"/></defs><g id="g839" transform="translate(312.476962073 40.8337651432)scale(0.07 -0.07)"><use id="use841" xlink:href="#BitstreamVeraSans-Roman-38"/><use id="use843" x="63.623" xlink:href="#BitstreamVeraSans-Roman-35"/></g></g><g id="patch_110"><path style="fill:#fff;stroke:#000" id="path846" d="M323.762 46.2767 L338.511 46.2767 L338.511 31.5278 L323.762 31.5278 z"/></g><g id="text_69"><g id="g849" transform="translate(327.216017002 40.8337651432)scale(0.07 -0.07)"><use id="use851" xlink:href="#BitstreamVeraSans-Roman-37"/><use id="use853" x="63.623" xlink:href="#BitstreamVeraSans-Roman-39"/></g></g><g id="patch_111"><path style="fill:#fff;stroke:#000" id="path856" d="M338.511 46.2767 L353.26 46.2767 L353.26 31.5278 L338.511 31.5278 z"/></g><g id="text_70"><g id="g859" transform="translate(341.95835318 40.8337651432)scale(0.07 -0.07)"><use id="use861" xlink:href="#BitstreamVeraSans-Roman-37"/><use id="use863" x="63.623" xlink:href="#BitstreamVeraSans-Roman-38"/></g></g><g id="patch_112"><path style="fill:#fff;stroke:#000" id="path866" d="M353.26 46.2767 L368.009 46.2767 L368.009 31.5278 L353.26 31.5278 z"/></g><g id="text_71"><g id="g869" transform="translate(356.650376858 40.8337651432)scale(0.07 -0.07)"><use id="use871" xlink:href="#BitstreamVeraSans-Roman-38"/><use id="use873" x="63.623" xlink:href="#BitstreamVeraSans-Roman-30"/></g></g><g id="patch_113"><path style="fill:#fff;stroke:#000" id="path876" d="M368.009 46.2767 L382.758 46.2767 L382.758 31.5278 L368.009 31.5278 z"/></g><g id="text_72"><g id="g879" transform="translate(371.472556787 40.8337651432)scale(0.07 -0.07)"><use id="use881" xlink:href="#BitstreamVeraSans-Roman-38"/><use id="use883" x="63.623" xlink:href="#BitstreamVeraSans-Roman-35"/></g></g><g id="patch_114"><path style="fill:#fff;stroke:#000" id="path886" d="M279.515 61.0256 L294.264 61.0256 L294.264 46.2767 L279.515 46.2767 z"/></g><g id="text_73"><g id="g889" transform="translate(283.073774091 55.5826638216)scale(0.07 -0.07)"><use id="use891" xlink:href="#BitstreamVeraSans-Roman-37"/><use id="use893" x="63.623" xlink:href="#BitstreamVeraSans-Roman-32"/></g></g><g id="patch_115"><path style="fill:#fff;stroke:#000" id="path896" d="M294.264 61.0256 L309.013 61.0256 L309.013 46.2767 L294.264 46.2767 z"/></g><g id="text_74"><g id="g899" transform="translate(297.77126652 55.5826638216)scale(0.07 -0.07)"><use id="use901" xlink:href="#BitstreamVeraSans-Roman-37"/><use id="use903" x="63.623" xlink:href="#BitstreamVeraSans-Roman-37"/></g></g><g id="patch_116"><path style="fill:#d3d3d3;stroke:#000" id="path906" d="M309.013 61.0256 L323.762 61.0256 L323.762 46.2767 L309.013 46.2767 z"/></g><g id="text_75"><defs id="defs909"><path id="BitstreamVeraSans-Roman-3f" d="M19.0938 12.4062 L29 12.4062 L29 0 L19.0938 0 z M28.7188 19.5781 L19.3906 19.5781 L19.3906 27.0938 Q19.3906 32.0312 20.75 35.2031 Q22.125 38.375 26.5156 42.5781 L30.9062 46.9219 Q33.6875 49.5156 34.9375 51.8125 Q36.1875 54.1094 36.1875 56.5 Q36.1875 60.8438 32.9844 63.5312 Q29.7812 66.2188 24.5156 66.2188 Q20.6562 66.2188 16.2812 64.5 Q11.9219 62.7969 7.17188 59.5156 L7.17188 68.7031 Q11.7656 71.4844 16.4688 72.8438 Q21.1875 74.2188 26.2188 74.2188 Q35.2031 74.2188 40.6406 69.4844 Q46.0938 64.75 46.0938 56.9844 Q46.0938 53.2656 44.3281 49.9219 Q42.5781 46.5781 38.1875 42.3906 L33.8906 38.1875 Q31.5938 35.8906 30.6406 34.5938 Q29.6875 33.2969 29.2969 32.0781 Q29 31.0625 28.8594 29.5938 Q28.7188 28.125 28.7188 25.5938 z"/></defs><g id="g912" transform="translate(315.025399573 55.5826638216)scale(0.07 -0.07)"><use id="use914" xlink:href="#BitstreamVeraSans-Roman-3f"/></g></g><g id="patch_117"><path style="fill:#d3d3d3;stroke:#000" id="path917" d="M323.762 61.0256 L338.511 61.0256 L338.511 46.2767 L323.762 46.2767 z"/></g><g id="text_76"><g id="g920" transform="translate(329.774298252 55.5826638216)scale(0.07 -0.07)"><use id="use922" xlink:href="#BitstreamVeraSans-Roman-3f"/></g></g><g id="patch_118"><path style="fill:#d3d3d3;stroke:#000" id="path925" d="M338.511 61.0256 L353.26 61.0256 L353.26 46.2767 L338.511 46.2767 z"/></g><g id="text_77"><g id="g928" transform="translate(344.52319693 55.5826638216)scale(0.07 -0.07)"><use id="use930" xlink:href="#BitstreamVeraSans-Roman-3f"/></g></g><g id="patch_119"><path style="fill:#fff;stroke:#000" id="path933" d="M353.26 61.0256 L368.009 61.0256 L368.009 46.2767 L353.26 46.2767 z"/></g><g id="text_78"><g id="g936" transform="translate(356.723658108 55.5826638216)scale(0.07 -0.07)"><use id="use938" xlink:href="#BitstreamVeraSans-Roman-38"/><use id="use940" x="63.623" xlink:href="#BitstreamVeraSans-Roman-35"/></g></g><g id="patch_120"><path style="fill:#fff;stroke:#000" id="path943" d="M368.009 61.0256 L382.758 61.0256 L382.758 46.2767 L368.009 46.2767 z"/></g><g id="text_79"><g id="g946" transform="translate(371.472556787 55.5826638216)scale(0.07 -0.07)"><use id="use948" xlink:href="#BitstreamVeraSans-Roman-38"/><use id="use950" x="63.623" xlink:href="#BitstreamVeraSans-Roman-35"/></g></g><g id="patch_121"><path style="fill:#fff;stroke:#000" id="path953" d="M279.515 75.7744 L294.264 75.7744 L294.264 61.0256 L279.515 61.0256 z"/></g><g id="text_80"><g id="g956" transform="translate(282.979164716 70.3315625)scale(0.07 -0.07)"><use id="use958" xlink:href="#BitstreamVeraSans-Roman-38"/><use id="use960" x="63.623" xlink:href="#BitstreamVeraSans-Roman-35"/></g></g><g id="patch_122"><path style="fill:#fff;stroke:#000" id="path963" d="M294.264 75.7744 L309.013 75.7744 L309.013 61.0256 L294.264 61.0256 z"/></g><g id="text_81"><g id="g966" transform="translate(297.72861027 70.3315625)scale(0.07 -0.07)"><use id="use968" xlink:href="#BitstreamVeraSans-Roman-39"/><use id="use970" x="63.623" xlink:href="#BitstreamVeraSans-Roman-31"/></g></g><g id="patch_123"><path style="fill:#d3d3d3;stroke:#000" id="path973" d="M309.013 75.7744 L323.762 75.7744 L323.762 61.0256 L309.013 61.0256 z"/></g><g id="text_82"><g id="g976" transform="translate(315.025399573 70.3315625)scale(0.07 -0.07)"><use id="use978" xlink:href="#BitstreamVeraSans-Roman-3f"/></g></g><g id="patch_124"><path style="fill:#d3d3d3;stroke:#000" id="path981" d="M323.762 75.7744 L338.511 75.7744 L338.511 61.0256 L323.762 61.0256 z"/></g><g id="text_83"><g id="g984" transform="translate(329.774298252 70.3315625)scale(0.07 -0.07)"><use id="use986" xlink:href="#BitstreamVeraSans-Roman-3f"/></g></g><g id="patch_125"><path style="fill:#d3d3d3;stroke:#000" id="path989" d="M338.511 75.7744 L353.26 75.7744 L353.26 61.0256 L338.511 61.0256 z"/></g><g id="text_84"><g id="g992" transform="translate(344.52319693 70.3315625)scale(0.07 -0.07)"><use id="use994" xlink:href="#BitstreamVeraSans-Roman-3f"/></g></g><g id="patch_126"><path style="fill:#fff;stroke:#000" id="path997" d="M353.26 75.7744 L368.009 75.7744 L368.009 61.0256 L353.26 61.0256 z"/></g><g id="text_85"><g id="g1000" transform="translate(356.681548733 70.3315625)scale(0.07 -0.07)"><use id="use1002" xlink:href="#BitstreamVeraSans-Roman-39"/><use id="use1004" x="63.623" xlink:href="#BitstreamVeraSans-Roman-33"/></g></g><g id="patch_127"><path style="fill:#fff;stroke:#000" id="path1007" d="M368.009 75.7744 L382.758 75.7744 L382.758 61.0256 L368.009 61.0256 z"/></g><g id="text_86"><g id="g1010" transform="translate(371.447400537 70.3315625)scale(0.07 -0.07)"><use id="use1012" xlink:href="#BitstreamVeraSans-Roman-38"/><use id="use1014" x="63.623" xlink:href="#BitstreamVeraSans-Roman-33"/></g></g><g id="patch_128"><path style="fill:#fff;stroke:#000" id="path1017" d="M279.515 90.5233 L294.264 90.5233 L294.264 75.7744 L279.515 75.7744 z"/></g><g id="text_87"><g id="g1020" transform="translate(282.919555341 85.0804611784)scale(0.07 -0.07)"><use id="use1022" xlink:href="#BitstreamVeraSans-Roman-38"/><use id="use1024" x="63.623" xlink:href="#BitstreamVeraSans-Roman-39"/></g></g><g id="patch_129"><path style="fill:#fff;stroke:#000" id="path1027" d="M294.264 90.5233 L309.013 90.5233 L309.013 75.7744 L294.264 75.7744 z"/></g><g id="text_88"><g id="g1030" transform="translate(297.63782902 85.0804611784)scale(0.07 -0.07)"><use id="use1032" xlink:href="#BitstreamVeraSans-Roman-39"/><use id="use1034" x="63.623" xlink:href="#BitstreamVeraSans-Roman-30"/></g></g><g id="patch_130"><path style="fill:#d3d3d3;stroke:#000" id="path1037" d="M309.013 90.5233 L323.762 90.5233 L323.762 75.7744 L309.013 75.7744 z"/></g><g id="text_89"><g id="g1040" transform="translate(315.025399573 85.0804611784)scale(0.07 -0.07)"><use id="use1042" xlink:href="#BitstreamVeraSans-Roman-3f"/></g></g><g id="patch_131"><path style="fill:#d3d3d3;stroke:#000" id="path1045" d="M323.762 90.5233 L338.511 90.5233 L338.511 75.7744 L323.762 75.7744 z"/></g><g id="text_90"><g id="g1048" transform="translate(329.774298252 85.0804611784)scale(0.07 -0.07)"><use id="use1050" xlink:href="#BitstreamVeraSans-Roman-3f"/></g></g><g id="patch_132"><path style="fill:#d3d3d3;stroke:#000" id="path1053" d="M338.511 90.5233 L353.26 90.5233 L353.26 75.7744 L338.511 75.7744 z"/></g><g id="text_91"><g id="g1056" transform="translate(344.52319693 85.0804611784)scale(0.07 -0.07)"><use id="use1058" xlink:href="#BitstreamVeraSans-Roman-3f"/></g></g><g id="patch_133"><path style="fill:#fff;stroke:#000" id="path1061" d="M353.26 90.5233 L368.009 90.5233 L368.009 75.7744 L353.26 75.7744 z"/></g><g id="text_92"><g id="g1064" transform="translate(356.638345608 85.0804611784)scale(0.07 -0.07)"><use id="use1066" xlink:href="#BitstreamVeraSans-Roman-38"/><use id="use1068" x="63.623" xlink:href="#BitstreamVeraSans-Roman-36"/></g></g><g id="patch_134"><path style="fill:#fff;stroke:#000" id="path1071" d="M368.009 90.5233 L382.758 90.5233 L382.758 75.7744 L368.009 75.7744 z"/></g><g id="text_93"><g id="g1074" transform="translate(371.515759912 85.0804611784)scale(0.07 -0.07)"><use id="use1076" xlink:href="#BitstreamVeraSans-Roman-37"/><use id="use1078" x="63.623" xlink:href="#BitstreamVeraSans-Roman-37"/></g></g><g id="patch_135"><path style="fill:#fff;stroke:#000" id="path1081" d="M279.515 105.272 L294.264 105.272 L294.264 90.5233 L279.515 90.5233 z"/></g><g id="text_94"><g id="g1084" transform="translate(282.893852216 99.8293598568)scale(0.07 -0.07)"><use id="use1086" xlink:href="#BitstreamVeraSans-Roman-38"/><use id="use1088" x="63.623" xlink:href="#BitstreamVeraSans-Roman-36"/></g></g><g id="patch_136"><path style="fill:#fff;stroke:#000" id="path1091" d="M294.264 105.272 L309.013 105.272 L309.013 90.5233 L294.264 90.5233 z"/></g><g id="text_95"><g id="g1094" transform="translate(297.69251652 99.8293598568)scale(0.07 -0.07)"><use id="use1096" xlink:href="#BitstreamVeraSans-Roman-37"/><use id="use1098" x="63.623" xlink:href="#BitstreamVeraSans-Roman-36"/></g></g><g id="patch_137"><path style="fill:#fff;stroke:#000" id="path1101" d="M309.013 105.272 L323.762 105.272 L323.762 90.5233 L309.013 90.5233 z"/></g><g id="text_96"><g id="g1104" transform="translate(312.503212073 99.8293598568)scale(0.07 -0.07)"><use id="use1106" xlink:href="#BitstreamVeraSans-Roman-35"/><use id="use1108" x="63.623" xlink:href="#BitstreamVeraSans-Roman-37"/></g></g><g id="patch_138"><path style="fill:#fff;stroke:#000" id="path1111" d="M323.762 105.272 L338.511 105.272 L338.511 90.5233 L323.762 90.5233 z"/></g><g id="text_97"><g id="g1114" transform="translate(327.232970127 99.8293598568)scale(0.07 -0.07)"><use id="use1116" xlink:href="#BitstreamVeraSans-Roman-36"/><use id="use1118" x="63.623" xlink:href="#BitstreamVeraSans-Roman-35"/></g></g><g id="patch_139"><path style="fill:#fff;stroke:#000" id="path1121" d="M338.511 105.272 L353.26 105.272 L353.26 90.5233 L338.511 90.5233 z"/></g><g id="text_98"><g id="g1124" transform="translate(341.872493805 99.8293598568)scale(0.07 -0.07)"><use id="use1126" xlink:href="#BitstreamVeraSans-Roman-39"/><use id="use1128" x="63.623" xlink:href="#BitstreamVeraSans-Roman-36"/></g></g><g id="patch_140"><path style="fill:#fff;stroke:#000" id="path1131" d="M353.26 105.272 L368.009 105.272 L368.009 90.5233 L353.26 90.5233 z"/></g><g id="text_99"><g id="g1134" transform="translate(356.698501858 99.8293598568)scale(0.07 -0.07)"><use id="use1136" xlink:href="#BitstreamVeraSans-Roman-38"/><use id="use1138" x="63.623" xlink:href="#BitstreamVeraSans-Roman-33"/></g></g><g id="patch_141"><path style="fill:#fff;stroke:#000" id="path1141" d="M368.009 105.272 L382.758 105.272 L382.758 90.5233 L368.009 90.5233 z"/></g><g id="text_100"><g id="g1144" transform="translate(371.387244287 99.8293598568)scale(0.07 -0.07)"><use id="use1146" xlink:href="#BitstreamVeraSans-Roman-38"/><use id="use1148" x="63.623" xlink:href="#BitstreamVeraSans-Roman-36"/></g></g><g id="patch_142"><path style="fill:#fff;stroke:#000" id="path1151" d="M279.515 120.021 L294.264 120.021 L294.264 105.272 L279.515 105.272 z"/></g><g id="text_101"><g id="g1154" transform="translate(282.954008466 114.578258535)scale(0.07 -0.07)"><use id="use1156" xlink:href="#BitstreamVeraSans-Roman-38"/><use id="use1158" x="63.623" xlink:href="#BitstreamVeraSans-Roman-33"/></g></g><g id="patch_143"><path style="fill:#fff;stroke:#000" id="path1161" d="M294.264 120.021 L309.013 120.021 L309.013 105.272 L294.264 105.272 z"/></g><g id="text_102"><g id="g1164" transform="translate(297.70454777 114.578258535)scale(0.07 -0.07)"><use id="use1166" xlink:href="#BitstreamVeraSans-Roman-37"/><use id="use1168" x="63.623" xlink:href="#BitstreamVeraSans-Roman-30"/></g></g><g id="patch_144"><path style="fill:#fff;stroke:#000" id="path1171" d="M309.013 120.021 L323.762 120.021 L323.762 105.272 L309.013 105.272 z"/></g><g id="text_103"><g id="g1174" transform="translate(312.501571448 114.578258535)scale(0.07 -0.07)"><use id="use1176" xlink:href="#BitstreamVeraSans-Roman-36"/><use id="use1178" x="63.623" xlink:href="#BitstreamVeraSans-Roman-31"/></g></g><g id="patch_145"><path style="fill:#fff;stroke:#000" id="path1181" d="M323.762 120.021 L338.511 120.021 L338.511 105.272 L323.762 105.272 z"/></g><g id="text_104"><g id="g1184" transform="translate(327.166251377 114.578258535)scale(0.07 -0.07)"><use id="use1186" xlink:href="#BitstreamVeraSans-Roman-37"/><use id="use1188" x="63.623" xlink:href="#BitstreamVeraSans-Roman-34"/></g></g><g id="patch_146"><path style="fill:#fff;stroke:#000" id="path1191" d="M338.511 120.021 L353.26 120.021 L353.26 105.272 L338.511 105.272 z"/></g><g id="text_105"><g id="g1194" transform="translate(341.89163443 114.578258535)scale(0.07 -0.07)"><use id="use1196" xlink:href="#BitstreamVeraSans-Roman-39"/><use id="use1198" x="63.623" xlink:href="#BitstreamVeraSans-Roman-38"/></g></g><g id="patch_147"><path style="fill:#fff;stroke:#000" id="path1201" d="M353.26 120.021 L368.009 120.021 L368.009 105.272 L353.26 105.272 z"/></g><g id="text_106"><g id="g1204" transform="translate(356.717095608 114.578258535)scale(0.07 -0.07)"><use id="use1206" xlink:href="#BitstreamVeraSans-Roman-38"/><use id="use1208" x="63.623" xlink:href="#BitstreamVeraSans-Roman-37"/></g></g><g id="patch_148"><path style="fill:#fff;stroke:#000" id="path1211" d="M368.009 120.021 L382.758 120.021 L382.758 105.272 L368.009 105.272 z"/></g><g id="text_107"><g id="g1214" transform="translate(369.410291162 114.578258535)scale(0.07 -0.07)"><use id="use1216" xlink:href="#BitstreamVeraSans-Roman-31"/><use id="use1218" x="63.623" xlink:href="#BitstreamVeraSans-Roman-30"/><use id="use1220" x="127.246" xlink:href="#BitstreamVeraSans-Roman-31"/></g></g></g></g><g id="axes_4"><g id="table_4"><g id="patch_149"><path style="fill:#fff;stroke:#000" id="path1225" d="M388.289 31.5278 L403.037 31.5278 L403.037 16.7789 L388.289 16.7789 z"/></g><g id="text_108"><g id="g1228" transform="translate(391.846901845 26.0848664648)scale(0.07 -0.07)"><use id="use1230" xlink:href="#BitstreamVeraSans-Roman-37"/><use id="use1232" x="63.623" xlink:href="#BitstreamVeraSans-Roman-32"/></g></g><g id="patch_150"><path style="fill:#fff;stroke:#000" id="path1235" d="M403.037 31.5278 L417.786 31.5278 L417.786 16.7789 L403.037 16.7789 z"/></g><g id="text_109"><g id="g1238" transform="translate(406.484784898 26.0848664648)scale(0.07 -0.07)"><use id="use1240" xlink:href="#BitstreamVeraSans-Roman-37"/><use id="use1242" x="63.623" xlink:href="#BitstreamVeraSans-Roman-38"/></g></g><g id="patch_151"><path style="fill:#fff;stroke:#000" id="path1245" d="M417.786 31.5278 L432.535 31.5278 L432.535 16.7789 L417.786 16.7789 z"/></g><g id="text_110"><g id="g1248" transform="translate(421.233683577 26.0848664648)scale(0.07 -0.07)"><use id="use1250" xlink:href="#BitstreamVeraSans-Roman-37"/><use id="use1252" x="63.623" xlink:href="#BitstreamVeraSans-Roman-38"/></g></g><g id="patch_152"><path style="fill:#fff;stroke:#000" id="path1255" d="M432.535 31.5278 L447.284 31.5278 L447.284 16.7789 L432.535 16.7789 z"/></g><g id="text_111"><g id="g1258" transform="translate(436.06625413 26.0848664648)scale(0.07 -0.07)"><use id="use1260" xlink:href="#BitstreamVeraSans-Roman-37"/><use id="use1262" x="63.623" xlink:href="#BitstreamVeraSans-Roman-31"/></g></g><g id="patch_153"><path style="fill:#fff;stroke:#000" id="path1265" d="M447.284 31.5278 L462.033 31.5278 L462.033 16.7789 L447.284 16.7789 z"/></g><g id="text_112"><g id="g1268" transform="translate(450.695387183 26.0848664648)scale(0.07 -0.07)"><use id="use1270" xlink:href="#BitstreamVeraSans-Roman-36"/><use id="use1272" x="63.623" xlink:href="#BitstreamVeraSans-Roman-39"/></g></g><g id="patch_154"><path style="fill:#fff;stroke:#000" id="path1275" d="M462.033 31.5278 L476.782 31.5278 L476.782 16.7789 L462.033 16.7789 z"/></g><g id="text_113"><g id="g1278" transform="translate(465.490223362 26.0848664648)scale(0.07 -0.07)"><use id="use1280" xlink:href="#BitstreamVeraSans-Roman-38"/><use id="use1282" x="63.623" xlink:href="#BitstreamVeraSans-Roman-37"/></g></g><g id="patch_155"><path style="fill:#fff;stroke:#000" id="path1285" d="M476.782 31.5278 L491.531 31.5278 L491.531 16.7789 L476.782 16.7789 z"/></g><g id="text_114"><g id="g1288" transform="translate(480.179512665 26.0848664648)scale(0.07 -0.07)"><use id="use1290" xlink:href="#BitstreamVeraSans-Roman-38"/><use id="use1292" x="63.623" xlink:href="#BitstreamVeraSans-Roman-38"/></g></g><g id="patch_156"><path style="fill:#fff;stroke:#000" id="path1295" d="M388.289 46.2767 L403.037 46.2767 L403.037 31.5278 L388.289 31.5278 z"/></g><g id="text_115"><g id="g1298" transform="translate(391.674089345 40.8337651432)scale(0.07 -0.07)"><use id="use1300" xlink:href="#BitstreamVeraSans-Roman-36"/><use id="use1302" x="63.623" xlink:href="#BitstreamVeraSans-Roman-36"/></g></g><g id="patch_157"><path style="fill:#fff;stroke:#000" id="path1305" d="M403.037 46.2767 L417.786 46.2767 L417.786 31.5278 L403.037 31.5278 z"/></g><g id="text_116"><g id="g1308" transform="translate(406.595800523 40.8337651432)scale(0.07 -0.07)"><use id="use1310" xlink:href="#BitstreamVeraSans-Roman-37"/><use id="use1312" x="63.623" xlink:href="#BitstreamVeraSans-Roman-32"/></g></g><g id="patch_158"><path style="fill:gray;stroke:#000" id="path1315" d="M417.786 46.2767 L432.535 46.2767 L432.535 31.5278 L417.786 31.5278 z"/></g><g id="text_117"><g id="g1318" transform="translate(421.808761702 37.1984838932)scale(0.06 -0.06)"><use id="use1320" xlink:href="#BitstreamVeraSans-Roman-38"/><use id="use1322" x="63.623" xlink:href="#BitstreamVeraSans-Roman-35"/></g><defs id="defs1324"><path id="BitstreamVeraSans-Roman-58" d="M6.29688 72.9062 L16.8906 72.9062 L35.0156 45.7969 L53.2188 72.9062 L63.8125 72.9062 L40.375 37.8906 L65.375 0 L54.7812 0 L34.2812 31 L13.625 0 L2.98438 0 L29 38.9219 z"/></defs><g id="g1327" transform="translate(421.485792952 43.9171713932)scale(0.06 -0.06)"><use id="use1329" xlink:href="#BitstreamVeraSans-Roman-58"/><use id="use1331" x="68.506" xlink:href="#BitstreamVeraSans-Roman-30"/></g></g><g id="patch_159"><path style="fill:gray;stroke:#000" id="path1334" d="M432.535 46.2767 L447.284 46.2767 L447.284 31.5278 L432.535 31.5278 z"/></g><g id="text_118"><g id="g1337" transform="translate(436.54922288 37.1984838932)scale(0.06 -0.06)"><use id="use1339" xlink:href="#BitstreamVeraSans-Roman-37"/><use id="use1341" x="63.623" xlink:href="#BitstreamVeraSans-Roman-39"/></g><g id="g1343" transform="translate(436.31250413 43.9171713932)scale(0.06 -0.06)"><use id="use1345" xlink:href="#BitstreamVeraSans-Roman-58"/><use id="use1347" x="68.506" xlink:href="#BitstreamVeraSans-Roman-31"/></g></g><g id="patch_160"><path style="fill:gray;stroke:#000" id="path1350" d="M447.284 46.2767 L462.033 46.2767 L462.033 31.5278 L447.284 31.5278 z"/></g><g id="text_119"><g id="g1353" transform="translate(451.292496558 37.1984838932)scale(0.06 -0.06)"><use id="use1355" xlink:href="#BitstreamVeraSans-Roman-37"/><use id="use1357" x="63.623" xlink:href="#BitstreamVeraSans-Roman-38"/></g><g id="g1359" transform="translate(451.084840308 43.9171713932)scale(0.06 -0.06)"><use id="use1361" xlink:href="#BitstreamVeraSans-Roman-58"/><use id="use1363" x="68.506" xlink:href="#BitstreamVeraSans-Roman-32"/></g></g><g id="patch_161"><path style="fill:#fff;stroke:#000" id="path1366" d="M462.033 46.2767 L476.782 46.2767 L476.782 31.5278 L462.033 31.5278 z"/></g><g id="text_120"><g id="g1369" transform="translate(465.423504612 40.8337651432)scale(0.07 -0.07)"><use id="use1371" xlink:href="#BitstreamVeraSans-Roman-38"/><use id="use1373" x="63.623" xlink:href="#BitstreamVeraSans-Roman-30"/></g></g><g id="patch_162"><path style="fill:#fff;stroke:#000" id="path1376" d="M476.782 46.2767 L491.531 46.2767 L491.531 31.5278 L476.782 31.5278 z"/></g><g id="text_121"><g id="g1379" transform="translate(480.24568454 40.8337651432)scale(0.07 -0.07)"><use id="use1381" xlink:href="#BitstreamVeraSans-Roman-38"/><use id="use1383" x="63.623" xlink:href="#BitstreamVeraSans-Roman-35"/></g></g><g id="patch_163"><path style="fill:#fff;stroke:#000" id="path1386" d="M388.289 61.0256 L403.037 61.0256 L403.037 46.2767 L388.289 46.2767 z"/></g><g id="text_122"><g id="g1389" transform="translate(391.846901845 55.5826638216)scale(0.07 -0.07)"><use id="use1391" xlink:href="#BitstreamVeraSans-Roman-37"/><use id="use1393" x="63.623" xlink:href="#BitstreamVeraSans-Roman-32"/></g></g><g id="patch_164"><path style="fill:gray;stroke:#000" id="path1396" d="M403.037 61.0256 L417.786 61.0256 L417.786 46.2767 L403.037 46.2767 z"/></g><g id="text_123"><g id="g1399" transform="translate(407.096894273 51.9473825716)scale(0.06 -0.06)"><use id="use1401" xlink:href="#BitstreamVeraSans-Roman-37"/><use id="use1403" x="63.623" xlink:href="#BitstreamVeraSans-Roman-37"/></g><g id="g1405" transform="translate(406.778144273 58.6660700716)scale(0.06 -0.06)"><use id="use1407" xlink:href="#BitstreamVeraSans-Roman-58"/><use id="use1409" x="68.506" xlink:href="#BitstreamVeraSans-Roman-33"/></g></g><g id="patch_165"><path style="fill:#d3d3d3;stroke:#000" id="path1412" d="M417.786 61.0256 L432.535 61.0256 L432.535 46.2767 L417.786 46.2767 z"/></g><g id="text_124"><g id="g1415" transform="translate(420.837199202 55.5826638216)scale(0.07 -0.07)"><use id="use1417" xlink:href="#BitstreamVeraSans-Roman-58"/><use id="use1419" x="68.506" xlink:href="#BitstreamVeraSans-Roman-34"/></g></g><g id="patch_166"><path style="fill:#d3d3d3;stroke:#000" id="path1422" d="M432.535 61.0256 L447.284 61.0256 L447.284 46.2767 L432.535 46.2767 z"/></g><g id="text_125"><g id="g1425" transform="translate(435.69547288 55.5826638216)scale(0.07 -0.07)"><use id="use1427" xlink:href="#BitstreamVeraSans-Roman-58"/><use id="use1429" x="68.506" xlink:href="#BitstreamVeraSans-Roman-35"/></g></g><g id="patch_167"><path style="fill:#d3d3d3;stroke:#000" id="path1432" d="M447.284 61.0256 L462.033 61.0256 L462.033 46.2767 L447.284 46.2767 z"/></g><g id="text_126"><g id="g1435" transform="translate(450.359059058 55.5826638216)scale(0.07 -0.07)"><use id="use1437" xlink:href="#BitstreamVeraSans-Roman-58"/><use id="use1439" x="68.506" xlink:href="#BitstreamVeraSans-Roman-36"/></g></g><g id="patch_168"><path style="fill:gray;stroke:#000" id="path1442" d="M462.033 61.0256 L476.782 61.0256 L476.782 46.2767 L462.033 46.2767 z"/></g><g id="text_127"><g id="g1445" transform="translate(466.055457737 51.9473825716)scale(0.06 -0.06)"><use id="use1447" xlink:href="#BitstreamVeraSans-Roman-38"/><use id="use1449" x="63.623" xlink:href="#BitstreamVeraSans-Roman-35"/></g><g id="g1451" transform="translate(465.789676487 58.6660700716)scale(0.06 -0.06)"><use id="use1453" xlink:href="#BitstreamVeraSans-Roman-58"/><use id="use1455" x="68.506" xlink:href="#BitstreamVeraSans-Roman-37"/></g></g><g id="patch_169"><path style="fill:#fff;stroke:#000" id="path1458" d="M476.782 61.0256 L491.531 61.0256 L491.531 46.2767 L476.782 46.2767 z"/></g><g id="text_128"><g id="g1461" transform="translate(480.24568454 55.5826638216)scale(0.07 -0.07)"><use id="use1463" xlink:href="#BitstreamVeraSans-Roman-38"/><use id="use1465" x="63.623" xlink:href="#BitstreamVeraSans-Roman-35"/></g></g><g id="patch_170"><path style="fill:#fff;stroke:#000" id="path1468" d="M388.289 75.7744 L403.037 75.7744 L403.037 61.0256 L388.289 61.0256 z"/></g><g id="text_129"><g id="g1471" transform="translate(391.75229247 70.3315625)scale(0.07 -0.07)"><use id="use1473" xlink:href="#BitstreamVeraSans-Roman-38"/><use id="use1475" x="63.623" xlink:href="#BitstreamVeraSans-Roman-35"/></g></g><g id="patch_171"><path style="fill:gray;stroke:#000" id="path1478" d="M403.037 75.7744 L417.786 75.7744 L417.786 61.0256 L403.037 61.0256 z"/></g><g id="text_130"><g id="g1481" transform="translate(407.060331773 66.69628125)scale(0.06 -0.06)"><use id="use1483" xlink:href="#BitstreamVeraSans-Roman-39"/><use id="use1485" x="63.623" xlink:href="#BitstreamVeraSans-Roman-31"/></g><g id="g1487" transform="translate(406.742988023 73.41496875)scale(0.06 -0.06)"><use id="use1489" xlink:href="#BitstreamVeraSans-Roman-58"/><use id="use1491" x="68.506" xlink:href="#BitstreamVeraSans-Roman-38"/></g></g><g id="patch_172"><path style="fill:#d3d3d3;stroke:#000" id="path1494" d="M417.786 75.7744 L432.535 75.7744 L432.535 61.0256 L417.786 61.0256 z"/></g><g id="text_131"><g id="g1497" transform="translate(420.886964827 70.3315625)scale(0.07 -0.07)"><use id="use1499" xlink:href="#BitstreamVeraSans-Roman-58"/><use id="use1501" x="68.506" xlink:href="#BitstreamVeraSans-Roman-39"/></g></g><g id="patch_173"><path style="fill:#d3d3d3;stroke:#000" id="path1504" d="M432.535 75.7744 L447.284 75.7744 L447.284 61.0256 L432.535 61.0256 z"/></g><g id="text_132"><g id="g1507" transform="translate(433.39531663 70.3315625)scale(0.07 -0.07)"><use id="use1509" xlink:href="#BitstreamVeraSans-Roman-58"/><use id="use1511" x="68.506" xlink:href="#BitstreamVeraSans-Roman-31"/><use id="use1513" x="132.129" xlink:href="#BitstreamVeraSans-Roman-30"/></g></g><g id="patch_174"><path style="fill:#d3d3d3;stroke:#000" id="path1516" d="M447.284 75.7744 L462.033 75.7744 L462.033 61.0256 L447.284 61.0256 z"/></g><g id="text_133"><g id="g1519" transform="translate(448.234996558 70.3315625)scale(0.07 -0.07)"><use id="use1521" xlink:href="#BitstreamVeraSans-Roman-58"/><use id="use1523" x="68.506" xlink:href="#BitstreamVeraSans-Roman-31"/><use id="use1525" x="132.129" xlink:href="#BitstreamVeraSans-Roman-31"/></g></g><g id="patch_175"><path style="fill:gray;stroke:#000" id="path1528" d="M462.033 75.7744 L476.782 75.7744 L476.782 61.0256 L462.033 61.0256 z"/></g><g id="text_134"><g id="g1531" transform="translate(466.019363987 66.69628125)scale(0.06 -0.06)"><use id="use1533" xlink:href="#BitstreamVeraSans-Roman-39"/><use id="use1535" x="63.623" xlink:href="#BitstreamVeraSans-Roman-33"/></g><g id="g1537" transform="translate(463.924988987 73.41496875)scale(0.06 -0.06)"><use id="use1539" xlink:href="#BitstreamVeraSans-Roman-58"/><use id="use1541" x="68.506" xlink:href="#BitstreamVeraSans-Roman-31"/><use id="use1543" x="132.129" xlink:href="#BitstreamVeraSans-Roman-32"/></g></g><g id="patch_176"><path style="fill:#fff;stroke:#000" id="path1546" d="M476.782 75.7744 L491.531 75.7744 L491.531 61.0256 L476.782 61.0256 z"/></g><g id="text_135"><g id="g1549" transform="translate(480.22052829 70.3315625)scale(0.07 -0.07)"><use id="use1551" xlink:href="#BitstreamVeraSans-Roman-38"/><use id="use1553" x="63.623" xlink:href="#BitstreamVeraSans-Roman-33"/></g></g><g id="patch_177"><path style="fill:#fff;stroke:#000" id="path1556" d="M388.289 90.5233 L403.037 90.5233 L403.037 75.7744 L388.289 75.7744 z"/></g><g id="text_136"><g id="g1559" transform="translate(391.692683095 85.0804611784)scale(0.07 -0.07)"><use id="use1561" xlink:href="#BitstreamVeraSans-Roman-38"/><use id="use1563" x="63.623" xlink:href="#BitstreamVeraSans-Roman-39"/></g></g><g id="patch_178"><path style="fill:gray;stroke:#000" id="path1566" d="M403.037 90.5233 L417.786 90.5233 L417.786 75.7744 L403.037 75.7744 z"/></g><g id="text_137"><g id="g1569" transform="translate(406.982519273 81.4451799284)scale(0.06 -0.06)"><use id="use1571" xlink:href="#BitstreamVeraSans-Roman-39"/><use id="use1573" x="63.623" xlink:href="#BitstreamVeraSans-Roman-30"/></g><g id="g1575" transform="translate(404.869394273 88.1638674284)scale(0.06 -0.06)"><use id="use1577" xlink:href="#BitstreamVeraSans-Roman-58"/><use id="use1579" x="68.506" xlink:href="#BitstreamVeraSans-Roman-31"/><use id="use1581" x="132.129" xlink:href="#BitstreamVeraSans-Roman-33"/></g></g><g id="patch_179"><path style="fill:#d3d3d3;stroke:#000" id="path1584" d="M417.786 90.5233 L432.535 90.5233 L432.535 75.7744 L417.786 75.7744 z"/></g><g id="text_138"><g id="g1587" transform="translate(418.610324202 85.0804611784)scale(0.07 -0.07)"><use id="use1589" xlink:href="#BitstreamVeraSans-Roman-58"/><use id="use1591" x="68.506" xlink:href="#BitstreamVeraSans-Roman-31"/><use id="use1593" x="132.129" xlink:href="#BitstreamVeraSans-Roman-34"/></g></g><g id="patch_180"><path style="fill:#d3d3d3;stroke:#000" id="path1596" d="M432.535 90.5233 L447.284 90.5233 L447.284 75.7744 L432.535 75.7744 z"/></g><g id="text_139"><g id="g1599" transform="translate(433.46859788 85.0804611784)scale(0.07 -0.07)"><use id="use1601" xlink:href="#BitstreamVeraSans-Roman-58"/><use id="use1603" x="68.506" xlink:href="#BitstreamVeraSans-Roman-31"/><use id="use1605" x="132.129" xlink:href="#BitstreamVeraSans-Roman-35"/></g></g><g id="patch_181"><path style="fill:#d3d3d3;stroke:#000" id="path1608" d="M447.284 90.5233 L462.033 90.5233 L462.033 75.7744 L447.284 75.7744 z"/></g><g id="text_140"><g id="g1611" transform="translate(448.132184058 85.0804611784)scale(0.07 -0.07)"><use id="use1613" xlink:href="#BitstreamVeraSans-Roman-58"/><use id="use1615" x="68.506" xlink:href="#BitstreamVeraSans-Roman-31"/><use id="use1617" x="132.129" xlink:href="#BitstreamVeraSans-Roman-36"/></g></g><g id="patch_182"><path style="fill:gray;stroke:#000" id="path1620" d="M462.033 90.5233 L476.782 90.5233 L476.782 75.7744 L462.033 75.7744 z"/></g><g id="text_141"><g id="g1623" transform="translate(465.982332737 81.4451799284)scale(0.06 -0.06)"><use id="use1625" xlink:href="#BitstreamVeraSans-Roman-38"/><use id="use1627" x="63.623" xlink:href="#BitstreamVeraSans-Roman-36"/></g><g id="g1629" transform="translate(463.880926487 88.1638674284)scale(0.06 -0.06)"><use id="use1631" xlink:href="#BitstreamVeraSans-Roman-58"/><use id="use1633" x="68.506" xlink:href="#BitstreamVeraSans-Roman-31"/><use id="use1635" x="132.129" xlink:href="#BitstreamVeraSans-Roman-37"/></g></g><g id="patch_183"><path style="fill:#fff;stroke:#000" id="path1638" d="M476.782 90.5233 L491.531 90.5233 L491.531 75.7744 L476.782 75.7744 z"/></g><g id="text_142"><g id="g1641" transform="translate(480.288887665 85.0804611784)scale(0.07 -0.07)"><use id="use1643" xlink:href="#BitstreamVeraSans-Roman-37"/><use id="use1645" x="63.623" xlink:href="#BitstreamVeraSans-Roman-37"/></g></g><g id="patch_184"><path style="fill:#fff;stroke:#000" id="path1648" d="M388.289 105.272 L403.037 105.272 L403.037 90.5233 L388.289 90.5233 z"/></g><g id="text_143"><g id="g1651" transform="translate(391.66697997 99.8293598568)scale(0.07 -0.07)"><use id="use1653" xlink:href="#BitstreamVeraSans-Roman-38"/><use id="use1655" x="63.623" xlink:href="#BitstreamVeraSans-Roman-36"/></g></g><g id="patch_185"><path style="fill:#fff;stroke:#000" id="path1658" d="M403.037 105.272 L417.786 105.272 L417.786 90.5233 L403.037 90.5233 z"/></g><g id="text_144"><g id="g1661" transform="translate(406.465644273 99.8293598568)scale(0.07 -0.07)"><use id="use1663" xlink:href="#BitstreamVeraSans-Roman-37"/><use id="use1665" x="63.623" xlink:href="#BitstreamVeraSans-Roman-36"/></g></g><g id="patch_186"><path style="fill:gray;stroke:#000" id="path1668" d="M417.786 105.272 L432.535 105.272 L432.535 90.5233 L417.786 90.5233 z"/></g><g id="text_145"><g id="g1671" transform="translate(421.831261702 96.1940786068)scale(0.06 -0.06)"><use id="use1673" xlink:href="#BitstreamVeraSans-Roman-35"/><use id="use1675" x="63.623" xlink:href="#BitstreamVeraSans-Roman-37"/></g><g id="g1677" transform="translate(419.583136702 102.912766107)scale(0.06 -0.06)"><use id="use1679" xlink:href="#BitstreamVeraSans-Roman-58"/><use id="use1681" x="68.506" xlink:href="#BitstreamVeraSans-Roman-31"/><use id="use1683" x="132.129" xlink:href="#BitstreamVeraSans-Roman-38"/></g></g><g id="patch_187"><path style="fill:gray;stroke:#000" id="path1686" d="M432.535 105.272 L447.284 105.272 L447.284 90.5233 L432.535 90.5233 z"/></g><g id="text_146"><g id="g1689" transform="translate(436.56375413 96.1940786068)scale(0.06 -0.06)"><use id="use1691" xlink:href="#BitstreamVeraSans-Roman-36"/><use id="use1693" x="63.623" xlink:href="#BitstreamVeraSans-Roman-35"/></g><g id="g1695" transform="translate(434.33766038 102.912766107)scale(0.06 -0.06)"><use id="use1697" xlink:href="#BitstreamVeraSans-Roman-58"/><use id="use1699" x="68.506" xlink:href="#BitstreamVeraSans-Roman-31"/><use id="use1701" x="132.129" xlink:href="#BitstreamVeraSans-Roman-39"/></g></g><g id="patch_188"><path style="fill:gray;stroke:#000" id="path1704" d="M447.284 105.272 L462.033 105.272 L462.033 90.5233 L447.284 90.5233 z"/></g><g id="text_147"><g id="g1707" transform="translate(451.218902808 96.1940786068)scale(0.06 -0.06)"><use id="use1709" xlink:href="#BitstreamVeraSans-Roman-39"/><use id="use1711" x="63.623" xlink:href="#BitstreamVeraSans-Roman-36"/></g><g id="g1713" transform="translate(449.074840308 102.912766107)scale(0.06 -0.06)"><use id="use1715" xlink:href="#BitstreamVeraSans-Roman-58"/><use id="use1717" x="68.506" xlink:href="#BitstreamVeraSans-Roman-32"/><use id="use1719" x="132.129" xlink:href="#BitstreamVeraSans-Roman-30"/></g></g><g id="patch_189"><path style="fill:#fff;stroke:#000" id="path1722" d="M462.033 105.272 L476.782 105.272 L476.782 90.5233 L462.033 90.5233 z"/></g><g id="text_148"><g id="g1725" transform="translate(465.471629612 99.8293598568)scale(0.07 -0.07)"><use id="use1727" xlink:href="#BitstreamVeraSans-Roman-38"/><use id="use1729" x="63.623" xlink:href="#BitstreamVeraSans-Roman-33"/></g></g><g id="patch_190"><path style="fill:#fff;stroke:#000" id="path1732" d="M476.782 105.272 L491.531 105.272 L491.531 90.5233 L476.782 90.5233 z"/></g><g id="text_149"><g id="g1735" transform="translate(480.16037204 99.8293598568)scale(0.07 -0.07)"><use id="use1737" xlink:href="#BitstreamVeraSans-Roman-38"/><use id="use1739" x="63.623" xlink:href="#BitstreamVeraSans-Roman-36"/></g></g><g id="patch_191"><path style="fill:#fff;stroke:#000" id="path1742" d="M388.289 120.021 L403.037 120.021 L403.037 105.272 L388.289 105.272 z"/></g><g id="text_150"><g id="g1745" transform="translate(391.72713622 114.578258535)scale(0.07 -0.07)"><use id="use1747" xlink:href="#BitstreamVeraSans-Roman-38"/><use id="use1749" x="63.623" xlink:href="#BitstreamVeraSans-Roman-33"/></g></g><g id="patch_192"><path style="fill:#fff;stroke:#000" id="path1752" d="M403.037 120.021 L417.786 120.021 L417.786 105.272 L403.037 105.272 z"/></g><g id="text_151"><g id="g1755" transform="translate(406.477675523 114.578258535)scale(0.07 -0.07)"><use id="use1757" xlink:href="#BitstreamVeraSans-Roman-37"/><use id="use1759" x="63.623" xlink:href="#BitstreamVeraSans-Roman-30"/></g></g><g id="patch_193"><path style="fill:#fff;stroke:#000" id="path1762" d="M417.786 120.021 L432.535 120.021 L432.535 105.272 L417.786 105.272 z"/></g><g id="text_152"><g id="g1765" transform="translate(421.274699202 114.578258535)scale(0.07 -0.07)"><use id="use1767" xlink:href="#BitstreamVeraSans-Roman-36"/><use id="use1769" x="63.623" xlink:href="#BitstreamVeraSans-Roman-31"/></g></g><g id="patch_194"><path style="fill:#fff;stroke:#000" id="path1772" d="M432.535 120.021 L447.284 120.021 L447.284 105.272 L432.535 105.272 z"/></g><g id="text_153"><g id="g1775" transform="translate(435.93937913 114.578258535)scale(0.07 -0.07)"><use id="use1777" xlink:href="#BitstreamVeraSans-Roman-37"/><use id="use1779" x="63.623" xlink:href="#BitstreamVeraSans-Roman-34"/></g></g><g id="patch_195"><path style="fill:#fff;stroke:#000" id="path1782" d="M447.284 120.021 L462.033 120.021 L462.033 105.272 L447.284 105.272 z"/></g><g id="text_154"><g id="g1785" transform="translate(450.664762183 114.578258535)scale(0.07 -0.07)"><use id="use1787" xlink:href="#BitstreamVeraSans-Roman-39"/><use id="use1789" x="63.623" xlink:href="#BitstreamVeraSans-Roman-38"/></g></g><g id="patch_196"><path style="fill:#fff;stroke:#000" id="path1792" d="M462.033 120.021 L476.782 120.021 L476.782 105.272 L462.033 105.272 z"/></g><g id="text_155"><g id="g1795" transform="translate(465.490223362 114.578258535)scale(0.07 -0.07)"><use id="use1797" xlink:href="#BitstreamVeraSans-Roman-38"/><use id="use1799" x="63.623" xlink:href="#BitstreamVeraSans-Roman-37"/></g></g><g id="patch_197"><path style="fill:#fff;stroke:#000" id="path1802" d="M476.782 120.021 L491.531 120.021 L491.531 105.272 L476.782 105.272 z"/></g><g id="text_156"><g id="g1805" transform="translate(478.183418915 114.578258535)scale(0.07 -0.07)"><use id="use1807" xlink:href="#BitstreamVeraSans-Roman-31"/><use id="use1809" x="63.623" xlink:href="#BitstreamVeraSans-Roman-30"/><use id="use1811" x="127.246" xlink:href="#BitstreamVeraSans-Roman-31"/></g></g></g></g></g></svg>